<svg width="321" height="196" viewBox="0 0 321 196" fill="none" xmlns="http://www.w3.org/2000/svg">
<path d="M26.2983 90.684H24.0463V88.4963H23.1455V90.684H20.8934V91.5591H23.1455V93.7468H24.0463V91.5591H26.2983V90.684Z" fill="#7E8299"/>
<path d="M306.675 2.95825H304.423V0.770569H303.522V2.95825H301.27V3.83332H303.522V6.021H304.423V3.83332H306.675V2.95825Z" fill="#7E8299"/>
<path d="M32.8291 83.9022C31.095 83.9022 29.6763 82.524 29.6763 80.8395C29.6763 79.155 31.095 77.7767 32.8291 77.7767C34.5632 77.7767 35.9819 79.155 35.9819 80.8395C35.9819 82.524 34.5632 83.9022 32.8291 83.9022ZM32.8291 78.6518C31.5905 78.6518 30.5771 79.6362 30.5771 80.8395C30.5771 82.0427 31.5905 83.0271 32.8291 83.0271C34.0677 83.0271 35.0811 82.0427 35.0811 80.8395C35.0811 79.6362 34.0677 78.6518 32.8291 78.6518Z" fill="#7E8299"/>
<path d="M303.972 143.188C302.238 143.188 300.819 141.81 300.819 140.125C300.819 138.441 302.238 137.063 303.972 137.063C305.706 137.063 307.125 138.441 307.125 140.125C307.125 141.81 305.706 143.188 303.972 143.188ZM303.972 137.938C302.734 137.938 301.72 138.922 301.72 140.125C301.72 141.329 302.734 142.313 303.972 142.313C305.211 142.313 306.224 141.329 306.224 140.125C306.224 138.922 305.211 137.938 303.972 137.938Z" fill="#7E8299"/>
<path d="M146.331 53.7122C144.597 53.7122 143.178 52.334 143.178 50.6495C143.178 48.965 144.597 47.5868 146.331 47.5868C148.065 47.5868 149.484 48.965 149.484 50.6495C149.484 52.334 148.065 53.7122 146.331 53.7122ZM146.331 48.4619C145.092 48.4619 144.079 49.4463 144.079 50.6495C144.079 51.8527 145.092 52.8372 146.331 52.8372C147.569 52.8372 148.583 51.8527 148.583 50.6495C148.583 49.4463 147.569 48.4619 146.331 48.4619Z" fill="#7E8299"/>
<path d="M319.939 124.112C318.993 124.112 315.412 123.827 314.579 119.802C313.768 115.974 310.12 116.63 309.962 116.674L309.782 115.82C309.827 115.82 314.466 114.945 315.457 119.627C316.268 123.521 319.939 123.237 320.096 123.237L320.187 124.112C320.164 124.112 320.074 124.112 319.939 124.112Z" fill="#7E8299"/>
<path d="M62.1728 25.0319C62.1728 24.8788 61.9701 21.291 57.9615 21.4004C57.8714 21.4004 57.8039 21.4004 57.7138 21.4004C53.0746 21.4004 52.354 17.1344 52.354 17.0907L53.2548 16.9594C53.2773 17.1125 53.8854 20.6347 57.939 20.5034C62.8709 20.3503 63.0736 24.9226 63.0736 24.9663L62.1728 25.0319Z" fill="#7E8299"/>
<path d="M177.859 11.9277H283.479C288.816 11.9277 293.162 16.1499 293.162 21.3347V118.467C293.162 123.652 288.816 127.874 283.479 127.874H177.859C172.522 127.874 168.175 123.652 168.175 118.467V21.3347C168.175 16.1499 172.522 11.9277 177.859 11.9277Z" fill="white"/>
<path d="M283.479 128.312H177.859C172.274 128.312 167.725 123.893 167.725 118.467V21.3347C167.725 15.9093 172.274 11.4902 177.859 11.4902H283.479C289.064 11.4902 293.613 15.9093 293.613 21.3347V118.467C293.613 123.893 289.064 128.312 283.479 128.312ZM177.859 12.3652C172.77 12.3652 168.626 16.3906 168.626 21.3347V118.467C168.626 123.412 172.77 127.437 177.859 127.437H283.479C288.568 127.437 292.712 123.412 292.712 118.467V21.3347C292.712 16.3906 288.568 12.3652 283.479 12.3652H177.859Z" fill="#E4E6EF"/>
<path d="M270.237 64.0163C266.048 65.3508 262.58 64.0382 261.274 63.4037C258.324 61.9599 254.675 60.166 247.379 66.7509C241.546 72.0232 238.483 72.1982 235.443 70.7543C231.75 69.026 224.859 65.7883 218.553 72.592C212.067 79.5925 207.518 79.2862 199.298 78.7393L198.668 78.6956C190.38 78.1487 177.476 92.6749 177.476 92.6749C177.972 92.0404 189.84 76.9454 198.758 77.5361L199.388 77.5799C207.496 78.1268 211.572 78.3893 217.675 71.8044C224.566 64.3663 232.268 67.976 235.984 69.7043C238.191 70.7325 240.668 71.2356 246.591 65.8758C253.887 59.2909 257.963 60.4503 261.837 62.3317C263.661 63.2287 270.552 65.1757 276.723 58.3939L283.434 52.0934L277.556 58.8752C275.034 61.763 272.534 63.2944 270.237 64.0163Z" fill="#00A3FF"/>
<path d="M189.817 57.7376L188.691 56.7751C189.57 55.8125 210.063 33.4545 220.197 33.1701C220.512 33.1701 220.94 33.3232 221.211 33.7607C221.638 34.5045 221.751 36.1672 217.878 42.1395C217.607 42.6646 213.554 50.2996 212.833 53.056C212.743 53.4279 212.878 53.7561 212.946 53.7998C213.013 53.8436 213.554 53.7561 214.545 52.6841C214.657 52.5748 225.647 41.0457 228.935 41.0457C229.566 41.0457 230.129 41.3082 230.534 41.7676C231.975 43.4302 231.322 47.7619 231.187 48.5276C231.21 48.7682 231.3 49.0526 231.367 49.0963C231.367 49.0963 231.57 49.1182 232.11 48.7463C232.426 48.5276 232.831 48.2431 233.304 47.8931C237.448 44.896 241.321 42.2489 243.28 42.7959C245.825 43.4959 245.442 47.4556 245.33 48.1994C245.33 48.265 245.375 48.4181 245.487 48.5057C245.555 48.5494 245.87 48.6807 246.726 48.3744C247.739 48.0025 248.46 47.3462 249.113 46.7555C249.924 46.0117 250.757 45.2679 251.906 45.4211C252.716 45.5304 253.414 45.9461 253.887 46.5805C254.788 47.7837 254.856 49.6214 254.631 50.934C254.54 51.459 254.653 51.7872 254.721 51.8309C254.721 51.8309 255.509 51.8309 258.414 48.615C263.819 42.6427 282.983 33.1919 285.033 32.8638C285.033 32.8638 264.72 44.1084 259.585 49.512C256.928 52.3122 255.374 53.7123 254.113 53.1654C253.324 52.8154 252.941 51.8747 253.144 50.6933C253.324 49.6432 253.257 48.2213 252.671 47.4337C252.424 47.1056 252.108 46.9087 251.68 46.8649C251.252 46.7993 250.825 47.1931 250.126 47.8275C249.406 48.4838 248.528 49.2932 247.244 49.7526C246.14 50.1464 245.262 50.1464 244.632 49.7089C243.843 49.1838 243.821 48.2869 243.821 48.1775V48.0681C243.978 46.9305 243.956 44.5022 242.852 44.1959C241.434 43.8022 236.164 47.6306 234.182 49.0526C233.709 49.4026 233.281 49.7089 232.966 49.9276C232.065 50.5402 231.3 50.6934 230.669 50.3871C229.701 49.9058 229.678 48.6151 229.678 48.4619V48.3306C229.971 46.6242 230.174 43.6053 229.363 42.6865C229.228 42.5333 229.093 42.4677 228.912 42.4677C226.863 42.4677 217.585 51.4809 215.648 53.6249C214.004 55.4187 212.878 55.3968 212.225 55.0687C211.369 54.6311 211.122 53.5373 211.347 52.6622C212.112 49.6651 216.346 41.7457 216.526 41.3957L216.549 41.352C219.544 36.736 219.859 35.0952 219.882 34.5921C210.311 35.3796 190.02 57.497 189.817 57.7376Z" fill="#00A3FF"/>
<path d="M240.916 92.1717C240.916 92.1717 239.88 93.6593 241.434 94.6656C241.434 94.6656 250.284 88.562 261.859 93.0467C261.859 93.0467 270.079 96.4814 271.115 101.535C271.566 103.744 271.633 106.763 268.03 110.023C268.03 110.023 261.094 115.755 249.541 115.514C249.541 115.514 241.726 115.689 233.619 112.276C231.84 111.533 227.201 109.279 226.953 105.298C226.751 102.169 227.471 97.5752 233.372 93.5718C236.885 91.2091 240.555 89.3277 249.046 89.5902C249.046 89.5902 251.095 88.1026 247.244 86.8556C247.244 86.8556 242.109 85.8493 233.372 91.3403C233.372 91.3403 225.422 96.0876 225.422 103.307C225.422 105.32 225.422 112.539 236.727 115.536C236.727 115.536 250.081 119.518 261.634 115.777C261.634 115.777 274.471 111.292 273.705 103.044C273.705 103.044 273.457 94.8187 262.67 91.3184C262.603 91.2966 251.32 86.068 240.916 92.1717Z" fill="#00A3FF"/>
<path d="M240.488 99.6097C240.488 99.6097 242.47 99.4565 242.785 100.725L242.942 108.382C242.942 108.382 250.667 99.2816 260.351 95.4531L261.004 96.2407C261.004 96.2407 249.518 103.744 242.942 111.226C242.942 111.226 241.952 110.898 241.141 110.111C241.141 110.154 241.141 101.054 240.488 99.6097Z" fill="#00A3FF"/>
<path d="M40.4409 195.605C40.4409 195.605 38.9546 189.064 42.6929 182.698C42.6929 182.698 44.7423 176.506 41.3868 170.884C38.0087 165.24 41.3868 158.874 45.3278 157.977C49.2688 157.058 53.9305 160.165 55.0565 164.518C56.1825 168.871 55.2367 171.978 61.9927 175.238C68.7263 178.519 68.456 195.605 68.456 195.605H40.4409Z" fill="#FAFBFD"/>
<path d="M68.8614 196.043H40.0807L40.0131 195.692C39.9455 195.43 38.5268 188.933 42.2876 182.523C42.4453 181.998 44.0892 176.266 41.004 171.103C39.315 168.281 39.0898 164.978 40.3959 162.024C41.4093 159.727 43.256 157.999 45.2153 157.561C49.4265 156.599 54.3134 159.858 55.4845 164.431C55.7097 165.284 55.8448 166.093 55.9799 166.859C56.5429 170.031 56.9483 172.328 62.1729 174.866C69.0866 178.213 68.884 194.927 68.884 195.627L68.8614 196.043ZM40.8013 195.167H67.9606C67.9381 192.52 67.5778 178.454 61.7451 175.631C56.115 172.897 55.6196 170.162 55.0791 166.99C54.944 166.224 54.8089 165.459 54.5837 164.627C53.5252 160.493 49.1338 157.539 45.3954 158.393C43.7064 158.786 42.1075 160.296 41.1841 162.352C39.9906 165.043 40.1933 168.062 41.7471 170.644C45.1702 176.375 43.1884 182.566 43.0984 182.807L43.0533 182.895C39.923 188.232 40.5761 193.745 40.8013 195.167Z" fill="black"/>
<path d="M54.6285 195.867C49.0435 184.032 44.8998 158.108 44.8547 157.846L45.7555 157.714C45.8006 157.977 49.9218 183.791 55.4618 195.517L54.6285 195.867Z" fill="black"/>
<path d="M25.6226 175.128C27.2395 175.128 28.5502 173.855 28.5502 172.284C28.5502 170.714 27.2395 169.44 25.6226 169.44C24.0057 169.44 22.6949 170.714 22.6949 172.284C22.6949 173.855 24.0057 175.128 25.6226 175.128Z" fill="black"/>
<path d="M40.4183 195.933C31.1175 192.608 25.8928 178.913 25.6676 178.344L26.726 177.972C26.7711 178.104 31.9958 191.777 40.8012 194.927L40.4183 195.933Z" fill="black"/>
<path d="M52.6657 160.785L47.8789 173.246L48.7229 173.552L53.5097 161.091L52.6657 160.785Z" fill="black"/>
<path d="M55.1537 166.751L49.6222 180.341L50.4599 180.663L55.9914 167.073L55.1537 166.751Z" fill="black"/>
<path d="M21.0735 173.05C21.0735 173.05 25.6226 170.753 30.1266 172.131C30.1266 172.131 31.3652 178.563 26.7486 179.044C21.5239 179.591 21.0735 173.05 21.0735 173.05Z" fill="#00A3FF"/>
<path d="M13.9572 172.853C15.4248 172.853 16.6146 171.697 16.6146 170.272C16.6146 168.846 15.4248 167.69 13.9572 167.69C12.4896 167.69 11.2998 168.846 11.2998 170.272C11.2998 171.697 12.4896 172.853 13.9572 172.853Z" fill="black"/>
<path d="M35.0134 191.776C35.0134 191.776 32.4011 188.145 32.7614 185.235C33.1443 182.326 35.0134 181.407 35.7566 181.604C36.4998 181.779 37.8059 182.151 37.2429 184.885C36.6799 187.598 35.0134 191.776 35.0134 191.776Z" fill="black"/>
<path d="M41.4958 185.401L40.9625 186.107L54.8465 196.014L55.3798 195.309L41.4958 185.401Z" fill="black"/>
<path d="M40.545 189.488L40.0197 190.199L48.2149 195.915L48.7403 195.204L40.545 189.488Z" fill="black"/>
<path d="M79.6485 167.865C79.6485 167.865 77.7793 164.037 79.6485 159.136C81.5176 154.236 82.8238 138.944 71.6087 139.688C60.3937 140.432 59.628 154.958 60.754 162.418C61.88 169.878 60.191 174.953 58.3218 179.154C56.4527 183.332 50.4623 186.417 51.3856 195.692H89.3772C89.3772 195.692 91.2463 180.969 79.6485 167.865Z" fill="#FAFBFD"/>
<path d="M89.7825 196.13H50.9803L50.9352 195.736C50.2596 189.042 53.1647 185.41 55.5068 182.501C56.4752 181.297 57.376 180.16 57.9165 178.979C59.8082 174.734 61.4296 169.812 60.3261 162.483C59.4478 156.577 59.8307 147.957 63.9068 143.079C65.8436 140.76 68.4334 139.469 71.6087 139.25C74.7841 139.053 77.2613 140.06 78.9503 142.247C82.531 146.907 81.4501 155.789 80.1214 159.289C78.4549 163.687 79.8736 167.187 80.0763 167.624C86.1117 174.45 88.4538 181.713 89.3546 186.614C90.3455 191.93 89.8951 195.583 89.8726 195.736L89.7825 196.13ZM51.791 195.255H88.9718C89.152 192.87 89.6024 179.788 79.3106 168.15L79.2656 168.106L79.2431 168.062C79.153 167.909 77.3063 164.015 79.2206 159.005C80.5042 155.658 81.5401 147.17 78.1846 142.773C76.6983 140.826 74.4913 139.95 71.6313 140.125C68.7262 140.322 66.339 141.482 64.5824 143.626C60.709 148.285 60.3261 156.621 61.2044 162.352C62.3529 169.9 60.5964 175.172 58.7497 179.329C58.1642 180.619 57.2409 181.801 56.2275 183.048C53.9079 185.913 51.2955 189.151 51.791 195.255Z" fill="black"/>
<path d="M17.2677 180.051C17.2677 180.051 11.4349 180.51 10.4891 179.154C9.56576 177.797 12.088 176.594 15.421 178.65C15.8939 178.935 17.2677 180.051 17.2677 180.051Z" fill="black"/>
<path d="M19.0918 182.938C19.0918 182.938 13.4842 184.557 12.2681 183.42C11.0746 182.282 13.2816 180.598 16.9749 181.932C17.5154 182.107 19.0918 182.938 19.0918 182.938Z" fill="black"/>
<path d="M31.7031 196.48C21.0736 188.495 14.0023 176.353 13.9347 176.244L14.9256 175.719C14.9931 175.828 21.9519 187.795 32.4012 195.627L31.7031 196.48Z" fill="black"/>
<path d="M71.0683 195.671C67.2849 175.895 67.4876 161.675 68.3209 153.23C69.2217 144.042 71.0233 139.623 71.0908 139.426L71.9241 139.754C71.9016 139.798 70.1 144.283 69.2217 153.384C68.3884 161.762 68.2083 175.873 71.9691 195.518L71.0683 195.671Z" fill="black"/>
<path d="M62.0142 147.811L61.3352 148.386L68.2163 156.054L68.8953 155.479L62.0142 147.811Z" fill="black"/>
<path d="M9.81348 170.972C9.81348 170.972 13.6869 168.784 18.0559 170.14C18.0559 170.14 19.1819 175.981 14.9931 176.419C10.2188 176.922 9.81348 170.972 9.81348 170.972Z" fill="#00A3FF"/>
<path d="M60.9133 152.957L60.2366 153.534L67.9209 162.032L68.5977 161.454L60.9133 152.957Z" fill="black"/>
<path d="M80.7129 169.334L69.2227 183.488L69.93 184.03L81.4202 169.876L80.7129 169.334Z" fill="black"/>
<path d="M83.1238 172.625L69.979 188.436L70.6798 188.986L83.8247 173.174L83.1238 172.625Z" fill="black"/>
<path d="M286.339 195.605C286.339 195.605 287.825 189.064 284.087 182.698C284.087 182.698 282.038 176.507 285.393 170.884C288.771 165.24 285.393 158.874 281.452 157.977C277.511 157.058 272.849 160.165 271.723 164.518C270.597 168.872 271.543 171.978 264.787 175.238C258.031 178.497 258.324 195.605 258.324 195.605H286.339Z" fill="#FAFBFD"/>
<path d="M286.699 196.043H257.918V195.605C257.896 194.905 257.716 178.191 264.629 174.844C269.854 172.306 270.259 170.009 270.822 166.837C270.957 166.071 271.092 165.262 271.318 164.409C272.489 159.836 277.398 156.577 281.587 157.539C283.546 157.999 285.393 159.705 286.406 162.002C287.712 164.956 287.487 168.259 285.798 171.081C282.713 176.244 284.357 181.976 284.514 182.501C288.275 188.933 286.857 195.408 286.789 195.671L286.699 196.043ZM258.796 195.167H285.956C286.181 193.767 286.834 188.233 283.704 182.916L283.659 182.829C283.569 182.566 281.587 176.397 285.01 170.665C286.564 168.084 286.766 165.065 285.573 162.374C284.672 160.318 283.051 158.808 281.362 158.414C277.623 157.539 273.232 160.515 272.173 164.649C271.971 165.481 271.813 166.268 271.678 167.012C271.115 170.184 270.642 172.919 265.012 175.653C259.179 178.454 258.819 192.52 258.796 195.167Z" fill="black"/>
<path d="M272.151 195.867L271.34 195.496C276.858 183.77 281.001 157.955 281.047 157.693L281.947 157.824C281.857 158.108 277.714 184.054 272.151 195.867Z" fill="black"/>
<path d="M301.135 175.128C302.751 175.128 304.062 173.855 304.062 172.284C304.062 170.714 302.751 169.44 301.135 169.44C299.518 169.44 298.207 170.714 298.207 172.284C298.207 173.855 299.518 175.128 301.135 175.128Z" fill="black"/>
<path d="M286.339 195.933L285.956 194.905C294.784 191.755 299.986 178.103 300.031 177.95L301.089 178.322C300.864 178.913 295.64 192.608 286.339 195.933Z" fill="black"/>
<path d="M274.088 160.704L273.244 161.01L278.03 173.472L278.874 173.166L274.088 160.704Z" fill="black"/>
<path d="M271.682 166.763L270.844 167.085L276.379 180.674L277.216 180.352L271.682 166.763Z" fill="black"/>
<path d="M305.684 173.05C305.684 173.05 301.135 170.753 296.631 172.131C296.631 172.131 295.392 178.563 300.009 179.044C305.233 179.591 305.684 173.05 305.684 173.05Z" fill="#00A3FF"/>
<path d="M291.766 191.777C291.766 191.777 294.378 188.145 294.018 185.235C293.635 182.326 291.766 181.407 291.023 181.604C290.28 181.779 288.973 182.151 289.536 184.885C290.077 187.598 291.766 191.777 291.766 191.777Z" fill="black"/>
<path d="M285.245 185.454L271.36 195.359L271.893 196.065L285.779 186.159L285.245 185.454Z" fill="black"/>
<path d="M247.109 167.865C247.109 167.865 248.978 164.037 247.109 159.136C245.24 154.236 243.933 138.944 255.148 139.688C266.363 140.432 267.129 154.958 266.003 162.418C264.877 169.878 266.566 174.953 268.435 179.154C270.304 183.332 276.295 186.417 275.371 195.692H237.38C237.38 195.692 235.511 180.969 247.109 167.865Z" fill="#FAFBFD"/>
<path d="M275.799 196.13H236.997L236.952 195.736C236.93 195.583 236.479 191.93 237.47 186.614C238.371 181.713 240.713 174.45 246.748 167.646C246.951 167.187 248.37 163.687 246.703 159.311C245.375 155.811 244.294 146.907 247.874 142.269C249.563 140.082 252.018 139.075 255.216 139.272C258.391 139.469 260.981 140.76 262.918 143.101C266.971 147.979 267.377 156.599 266.498 162.505C265.395 169.812 266.994 174.756 268.908 179C269.449 180.182 270.349 181.319 271.318 182.523C273.66 185.432 276.565 189.064 275.889 195.758L275.799 196.13ZM237.808 195.255H274.989C275.484 189.151 272.872 185.914 270.575 183.026C269.584 181.779 268.638 180.597 268.052 179.307C266.206 175.15 264.449 169.9 265.598 162.33C266.453 156.599 266.093 148.264 262.22 143.604C260.441 141.482 258.076 140.301 255.171 140.104C252.311 139.929 250.104 140.804 248.617 142.751C245.239 147.148 246.298 155.614 247.582 158.983C249.496 164.015 247.649 167.887 247.559 168.04L247.537 168.084L247.491 168.128C237.155 179.788 237.605 192.87 237.808 195.255Z" fill="black"/>
<path d="M255.711 195.671L254.833 195.518C258.594 175.873 258.391 161.762 257.58 153.384C256.68 144.305 254.878 139.798 254.878 139.754L255.711 139.426C255.779 139.601 257.58 144.042 258.481 153.23C259.292 161.697 259.495 175.917 255.711 195.671Z" fill="black"/>
<path d="M264.755 147.826L257.874 155.494L258.553 156.069L265.434 148.401L264.755 147.826Z" fill="black"/>
<path d="M265.876 152.918L258.191 161.414L258.867 161.992L266.553 153.496L265.876 152.918Z" fill="black"/>
<path d="M245.996 169.309L245.289 169.851L256.781 184.004L257.489 183.462L245.996 169.309Z" fill="black"/>
<path d="M243.681 172.679L242.98 173.229L256.123 189.043L256.824 188.493L243.681 172.679Z" fill="black"/>
<path d="M69.7397 183.332L66.8121 191.514L58.84 189.895L60.9569 183.332H69.7397Z" fill="#FAFBFD"/>
<path d="M67.1049 192.017L58.277 190.223L60.6416 182.895H70.3928L67.1049 192.017ZM59.4255 189.567L66.5194 191.011L69.1092 183.77H61.2947L59.4255 189.567Z" fill="black"/>
<path d="M58.7048 188.845C58.7048 188.845 63.4791 192.367 67.4877 188.845L79.3784 194.861C79.8963 195.124 79.7162 195.889 79.1081 195.889H58.0968C57.4437 195.889 56.9483 195.277 57.1284 194.664L58.7048 188.845Z" fill="black"/>
<path d="M112.303 183.332L112.528 191.514L104.105 191.426L103.52 183.332H112.303Z" fill="#FAFBFD"/>
<path d="M112.978 191.951L103.678 191.864L103.025 182.895H112.731L112.978 191.951ZM104.533 190.989L112.055 191.076L111.852 183.77H103.993L104.533 190.989Z" fill="black"/>
<path d="M103.97 188.845C103.97 188.845 108.745 192.367 112.753 188.845L124.644 194.861C125.162 195.124 124.982 195.889 124.374 195.889H103.362C102.709 195.889 102.214 195.277 102.394 194.664L103.97 188.845Z" fill="black"/>
<path d="M105.457 62.1786C103.25 59.269 107.146 51.5246 107.641 47.9587C109.173 36.8015 96.4486 37.6985 96.4486 37.6985C86.247 36.714 83.9724 45.1366 82.959 49.0088C80.9998 56.6438 77.5091 57.497 74.6491 59.619C71.789 61.741 67.6678 68.7416 72.2394 72.57C74.3338 74.3202 99.8717 78.608 104.128 77.2298C109.015 75.6766 107.664 65.0882 105.457 62.1786Z" fill="black"/>
<path d="M86.1793 64.2568L90.5933 54.7405C90.5933 54.7405 87.1252 48.2868 91.6968 48.8994C91.6968 48.8994 100.705 50.1245 102.439 43.999C102.439 43.999 108.452 60.7347 97.0566 59.3565L96.7413 66.4227L86.1793 64.2568Z" fill="#FAFBFD"/>
<path d="M97.1918 66.9477L85.5488 64.585L90.1204 54.7624C89.67 53.8873 88.2062 50.7589 89.3097 49.2276C89.7826 48.5713 90.6159 48.3306 91.7869 48.4838C91.877 48.5057 100.412 49.5776 102.034 43.8897L102.416 42.5333L102.889 43.8678C103.024 44.2834 106.403 53.8217 102.934 58.0002C101.741 59.4221 99.9392 60.0347 97.5071 59.8378L97.1918 66.9477ZM86.81 63.9287L96.336 65.8539L96.6513 58.8314L97.1467 58.8971C99.4663 59.1815 101.178 58.6783 102.236 57.4094C104.714 54.4342 103.205 48.0025 102.416 45.3117C99.8266 50.3652 91.7419 49.3151 91.6518 49.3151C90.8411 49.2057 90.3006 49.3369 90.0304 49.7088C89.2647 50.7589 90.5033 53.6029 90.9987 54.5217L91.1113 54.7186L86.81 63.9287Z" fill="black"/>
<path d="M96.944 78.8487L107.641 86.0899L135.363 93.9436L141.466 88.4526L113.744 77.0985L97.0115 64.2131L96.944 78.8487Z" fill="#00A3FF"/>
<path d="M84.175 104.16C84.3777 104.751 103.43 132.403 109.69 141.482C110.997 143.363 111.83 145.507 112.123 147.76L117.032 184.754H102.416L93.4083 148.351L69.0865 115.755C69.0865 115.755 63.9744 108.667 72.9825 99.6754L84.175 104.16Z" fill="black"/>
<path d="M64.6501 97.9471C64.6501 97.9471 54.7412 111.729 59.6055 121.902L71.7664 145.31L55.9573 184.798H70.0774L88.2512 151.851C89.5574 149.467 90.0078 146.71 89.4898 144.063L82.2383 106.326L64.6501 97.9471Z" fill="#2F2E40"/>
<path d="M97.079 63.9069C97.079 63.9069 91.3589 62.9006 88.679 58.8971C88.679 58.8971 82.2382 57.6064 74.4463 64.6944L59.628 81.3645C57.6913 83.5303 58.2317 86.8556 60.7315 88.3651L68.1181 92.828L62.5106 101.097L86.1117 109.607C86.1117 109.607 91.6066 91.7779 98.4077 86.4837C104.466 81.8021 98.16 67.1009 97.079 63.9069Z" fill="#00A3FF"/>
<path d="M219.184 63.4475L223.958 61.9161L238.731 63.5132L248.415 64.5632C249.473 64.6726 249.924 65.9633 249.135 66.6634L242.019 73.117L231.164 82.9835L226.39 84.5148L219.184 63.4475Z" fill="#FAFBFD"/>
<path d="M226.12 85.084L218.621 63.1635L223.913 61.4571L248.46 64.1042C249.135 64.1698 249.676 64.6074 249.901 65.2199C250.104 65.8325 249.946 66.5106 249.451 66.9482L231.412 83.3557L226.12 85.084ZM219.769 63.7104L226.705 83.9683L230.962 82.5901L248.843 66.3138C249.068 66.095 249.158 65.7887 249.045 65.5043C248.933 65.198 248.685 65.0011 248.37 64.9793L224.025 62.3541L219.769 63.7104Z" fill="black"/>
<path d="M31.3654 124.068L223.958 61.8943L224.025 62.0693C222.494 62.9225 221.728 64.7164 222.314 66.4009C222.899 68.0854 224.611 69.0918 226.368 68.873L226.413 69.0042C224.881 69.8574 224.116 71.6513 224.701 73.3358C225.287 75.0203 226.998 76.0267 228.755 75.8079L228.8 75.9392C227.268 76.7924 226.503 78.5862 227.088 80.2708C227.674 81.9553 229.385 82.9616 231.142 82.7428L231.209 82.9179L38.5718 145.157L31.3654 124.068Z" fill="#FAFBFD"/>
<path d="M38.3016 145.704L30.8024 123.784L31.2303 123.652L224.251 61.3473L224.566 62.288L224.251 62.463C222.877 63.2068 222.246 64.8257 222.742 66.2915C223.237 67.7572 224.746 68.676 226.3 68.4791L226.66 68.4354L226.931 69.2448L226.615 69.4198C225.242 70.1637 224.611 71.7825 225.107 73.2483C225.602 74.714 227.111 75.6328 228.665 75.4359L229.025 75.3922L229.295 76.2016L228.98 76.3767C227.606 77.1205 226.976 78.7393 227.471 80.2051C227.967 81.6708 229.475 82.5897 231.029 82.3928L231.39 82.349L231.705 83.2897L231.277 83.421L38.3016 145.704ZM31.9284 124.352L38.8646 144.61L229.408 83.1147C228.124 82.7427 227.066 81.7802 226.638 80.4894C226.12 79.0018 226.548 77.383 227.651 76.2891C226.097 76.0703 224.769 75.0203 224.251 73.5327C223.733 72.0451 224.161 70.4261 225.264 69.3323C223.71 69.1135 222.382 68.0635 221.864 66.5759C221.413 65.2851 221.683 63.9069 222.472 62.8568L31.9284 124.352Z" fill="black"/>
<path d="M238.754 63.4912L248.437 64.5413C249.496 64.6507 249.946 65.9414 249.158 66.6415L242.042 73.0951L238.754 63.4912Z" fill="black"/>
<path d="M40.0355 143.801L32.4913 146.229C29.7663 147.104 26.8387 145.682 25.9379 143.035L22.6049 133.322C21.7041 130.675 23.1679 127.831 25.8929 126.956L33.4371 124.527L40.0355 143.801Z" fill="#FAFBFD"/>
<path d="M30.8698 146.929C28.5052 146.929 26.2982 145.463 25.51 143.166L22.177 133.453C21.7041 132.053 21.8167 130.587 22.4923 129.275C23.1679 127.962 24.3164 126.999 25.7577 126.54L33.7299 123.959L40.6211 144.085L32.6489 146.667C32.0634 146.842 31.4553 146.929 30.8698 146.929ZM33.1669 125.074L26.0505 127.371C24.8569 127.765 23.866 128.575 23.303 129.668C22.74 130.762 22.6499 132.009 23.0328 133.191L26.3658 142.904C27.199 145.31 29.8789 146.623 32.3561 145.813L39.4725 143.516L33.1669 125.074Z" fill="black"/>
<path d="M41.8746 120.671L31.3597 124.064L38.574 145.158L49.0888 141.764L41.8746 120.671Z" fill="black"/>
<path d="M228.488 75.5508L46.5087 134.285L46.7927 135.115L228.772 76.3813L228.488 75.5508Z" fill="black"/>
<path d="M226.122 68.5897L44.1428 127.324L44.4268 128.154L226.406 69.4201L226.122 68.5897Z" fill="black"/>
<path d="M137.706 87.14L144.529 88.8026L147.457 90.9247C147.457 90.9247 144.169 91.9966 141.489 89.8527L133.697 91.0341L137.706 87.14Z" fill="#FAFBFD"/>
<path d="M132.391 91.6904L137.571 86.6588L144.709 88.387L148.38 91.0778L147.569 91.3403C147.434 91.3841 144.146 92.4123 141.331 90.334L132.391 91.6904ZM141.602 89.4152L141.759 89.5465C143.381 90.8372 145.272 90.8591 146.376 90.7059L144.327 89.2183L137.841 87.6432L134.981 90.4215L141.602 89.4152Z" fill="black"/>
<path d="M92.1023 94.4687L103.137 100.638L105.344 108.142C105.344 108.142 104.241 108.689 103.137 106.807L103.7 109.498C103.7 109.498 102.034 108.951 101.493 107.354V108.973C101.493 108.973 100.66 109.52 99.8267 106.567L99.5564 107.901C99.5564 107.901 98.7232 107.638 98.7232 105.757L98.1602 103.876C98.1602 103.876 95.9532 103.066 95.12 101.469L89.3323 98.7784L92.1023 94.4687Z" fill="#FAFBFD"/>
<path d="M104.286 110.132L103.542 109.892C103.497 109.87 102.664 109.586 101.921 108.864V109.17L101.718 109.301C101.561 109.411 101.29 109.476 100.975 109.345C100.592 109.214 100.232 108.82 99.9168 108.164L99.8717 108.426L99.3988 108.273C99.2862 108.229 98.2728 107.857 98.2728 105.779L97.7999 104.16C97.2143 103.919 95.5929 103.132 94.8047 101.754L88.6792 98.9315L91.9446 93.8781L103.52 100.332L105.885 108.36L105.547 108.514C105.502 108.535 104.781 108.864 103.903 108.295L104.286 110.132ZM101.02 104.641L101.899 107.201C102.146 107.901 102.619 108.382 103.047 108.667L102.146 104.248L103.52 106.588C103.993 107.42 104.443 107.682 104.759 107.748L102.754 100.922L92.2599 95.0594L90.0079 98.5815L95.4803 101.119L95.5478 101.25C96.291 102.672 98.3178 103.438 98.3403 103.438L98.543 103.526L99.1736 105.67V105.735C99.1736 106.217 99.2412 106.567 99.3087 106.829L99.7591 104.641L100.255 106.435C100.547 107.485 100.818 108.01 101.02 108.295V104.641Z" fill="black"/>
<path d="M88.1162 101.535L67.5778 93.1123L67.9156 92.3028L87.7559 100.419L91.9671 93.528L74.5815 81.6489L80.0765 76.311L80.707 76.9454L75.9778 81.5395L93.1607 93.2873L88.1162 101.535Z" fill="black"/>
<path d="M250.149 185.279L258.572 185.301L258.234 193.461L249.901 193.789L250.149 185.279Z" fill="#FAFBFD"/>
<path d="M249.428 194.249L249.721 184.82L259.044 184.842L258.684 193.877L249.428 194.249ZM250.599 185.717L250.374 193.352L257.828 193.045L258.121 185.739L250.599 185.717Z" fill="black"/>
<path d="M255.576 193.527C255.576 193.527 259.337 188.998 255.824 184.995L262.355 173.619C262.648 173.116 263.436 173.334 263.413 173.903L262.805 194.292C262.783 194.927 262.152 195.386 261.522 195.211L255.576 193.527Z" fill="black"/>
<path d="M174.458 177.404L214.117 179.044L250.374 184.732V195.364H174.571L174.458 177.404Z" fill="#FAFBFD"/>
<path d="M250.824 195.802H174.121L173.986 176.944L214.184 178.629L250.824 184.36V195.802ZM175.022 194.927H249.924V185.104L214.072 179.504L174.909 177.863L175.022 194.927Z" fill="black"/>
<path d="M233.912 182.457L237.515 190.639L229.092 190.551L225.129 182.457H233.912Z" fill="#FAFBFD"/>
<path d="M238.191 191.076L228.8 190.967L224.408 181.997H234.205L238.191 191.076ZM229.385 190.114L236.839 190.201L233.619 182.894H225.85L229.385 190.114Z" fill="black"/>
<path d="M227.831 187.97C227.831 187.97 232.606 191.492 236.614 187.97L248.505 193.986C249.023 194.249 248.843 195.014 248.235 195.014H227.223C226.57 195.014 226.075 194.402 226.255 193.789L227.831 187.97Z" fill="black"/>
<path d="M149.394 174.319C149.394 174.319 140.881 191.098 151.826 195.364H180.539L212.946 175.413L226.278 187.817L237.56 184.098L219.139 157.189C216.774 153.23 211.527 151.895 207.473 154.258L175.9 172.656L149.394 174.319Z" fill="#FAFBFD"/>
<path d="M180.674 195.802H151.736L151.646 195.78C149.168 194.817 147.457 193.155 146.533 190.858C143.921 184.229 148.763 174.56 148.966 174.144L149.078 173.925L175.765 172.262L207.248 153.908C209.32 152.705 211.729 152.377 214.049 152.945C216.369 153.536 218.305 154.958 219.521 156.971L238.258 184.338L226.165 188.32L212.9 175.981L180.674 195.802ZM151.916 194.927H180.404L213.013 174.866L226.39 187.314L236.839 183.857L218.733 157.408C217.652 155.592 215.896 154.302 213.824 153.777C211.729 153.252 209.567 153.558 207.698 154.63L176.057 173.094L149.686 174.735C148.966 176.222 145.137 184.798 147.389 190.53C148.2 192.586 149.709 194.052 151.916 194.927Z" fill="black"/>
<path d="M145.858 139.863L138.809 141.285L139.53 115.273L147.322 110.067L142.21 111.489L143.673 106.763L143.426 103.46C143.426 103.46 141.962 103.701 141.962 106.063L140.633 108.076L141.129 105.473L140.318 101.294C140.295 101.185 140.183 101.119 140.07 101.163C139.62 101.338 138.561 101.819 138.561 102.76C138.561 103.941 138.561 104.641 138.561 104.641L138.449 105.932L137.953 103.569L137.525 101.71C137.503 101.557 137.323 101.513 137.188 101.6C136.872 101.841 136.399 102.41 136.242 103.81L135.881 107.463L135.161 104.401C135.161 104.401 133.697 104.882 133.945 106.763L133.584 111.62C133.584 111.62 133.832 113.283 134.08 114.464L128.36 145.31C128.36 145.31 127.031 149.445 133.584 149.926C133.584 149.926 140.273 150.036 145.633 149.576L145.858 139.863Z" fill="#FAFBFD"/>
<path d="M135.453 150.364C134.305 150.364 133.562 150.342 133.562 150.342H133.539C131.017 150.167 129.283 149.423 128.405 148.154C127.481 146.842 127.842 145.42 127.909 145.179L133.607 114.442C133.359 113.261 133.134 111.686 133.134 111.664V111.62L133.494 106.763C133.292 105.013 134.395 104.182 135.026 103.985L135.499 103.832L135.724 104.751L135.814 103.766C135.994 102.257 136.512 101.557 136.94 101.251C137.12 101.119 137.345 101.076 137.57 101.141C137.773 101.207 137.931 101.382 137.998 101.601L138.178 102.388C138.381 101.426 139.462 100.922 139.935 100.725C140.115 100.66 140.295 100.682 140.475 100.769C140.633 100.857 140.746 101.01 140.791 101.185L141.601 105.363C141.872 103.285 143.336 103.023 143.403 103.001L143.899 102.913L144.191 106.785L142.953 110.833L149.911 108.907L140.048 115.492L139.349 140.716L146.398 139.294L146.128 149.926L145.723 149.97C142.074 150.298 137.841 150.364 135.453 150.364ZM133.584 149.467C133.9 149.467 140.07 149.554 145.16 149.139L145.385 140.388L138.336 141.81L139.079 115.033L144.777 111.226L141.534 112.123L143.2 106.698L143.02 104.138C142.728 104.423 142.412 104.97 142.412 106.02V106.151L139.777 110.111L140.656 105.429L139.912 101.666C139.53 101.863 138.989 102.213 138.989 102.716V104.641L138.584 108.951L137.48 103.635L137.165 102.235C136.985 102.519 136.76 103.001 136.67 103.832L136.039 110.154L134.823 105.057C134.53 105.32 134.237 105.823 134.35 106.676V106.72L133.99 111.554C134.035 111.839 134.26 113.283 134.463 114.311L134.485 114.398L128.765 145.442C128.765 145.442 128.405 146.645 129.148 147.695C129.868 148.701 131.355 149.314 133.584 149.467ZM141.511 105.713L141.466 105.998L141.511 105.932C141.511 105.867 141.511 105.779 141.511 105.713Z" fill="black"/>
<path d="M168.851 140.563C168.851 140.322 168.355 131.112 168.355 131.112C168.355 131.112 176.62 134.416 172.747 117.396C172.747 117.396 163.356 112.758 160.451 119.408C157.411 126.387 158.874 140.563 158.874 140.563H168.851Z" fill="#FAFBFD"/>
<path d="M169.301 141.001H158.469L158.424 140.607C158.357 140.016 156.983 126.234 160.046 119.233C160.789 117.549 161.982 116.389 163.626 115.82C167.612 114.398 172.747 116.914 172.972 117.002L173.152 117.089L173.197 117.286C174.864 124.527 174.549 129.122 172.319 130.959C171.103 131.944 169.684 131.856 168.873 131.681C168.986 133.847 169.324 140.322 169.324 140.541V141.001H169.301ZM159.28 140.126H168.378C168.31 138.572 168.018 133.322 167.905 131.134L167.86 130.434L168.513 130.697C168.581 130.718 170.36 131.397 171.711 130.303C173.04 129.209 174.233 126.124 172.342 117.702C171.396 117.286 167.117 115.492 163.897 116.652C162.5 117.133 161.487 118.139 160.856 119.583C158.199 125.731 159.077 137.807 159.28 140.126Z" fill="black"/>
<path d="M186.484 132.884L193.533 131.462L187.926 101.666L178.67 99.7848L181.71 98.7128L179.03 95.8688L177.611 92.7404C177.476 92.4122 177.724 92.0622 178.084 92.106C178.873 92.1716 180.021 92.456 180.494 93.5061L184.142 96.3501L180.494 91.6247L179.526 89.0213C179.39 88.6494 179.728 88.2994 180.111 88.3869C180.764 88.5182 181.642 88.912 182.183 89.984L187.295 95.1906L183.895 89.984L183.151 87.84C183.039 87.49 183.354 87.14 183.737 87.2275C184.3 87.3806 185.066 87.7744 185.606 88.8026L188.534 92.3467L187.318 89.7433L186.957 88.3213C186.912 88.1244 187.115 87.9713 187.295 88.0807C187.7 88.2995 188.263 88.7151 188.556 89.2839L191.236 93.0685L194.389 98.7347L194.884 101.338L202.519 134.372C202.947 136.253 201.911 138.157 200.064 138.857L188.421 143.298L186.484 132.884Z" fill="#FAFBFD"/>
<path d="M188.106 143.888L185.989 132.534L193.038 131.112L187.565 102.038L177.071 99.8941L180.967 98.5377L178.692 96.1313L177.251 92.9373C177.116 92.6529 177.161 92.3029 177.341 92.0623C177.544 91.7997 177.836 91.6685 178.174 91.6904C179.48 91.7997 180.449 92.3685 180.899 93.2655L181.687 93.878L180.134 91.8435L179.143 89.1745C179.03 88.8464 179.098 88.5182 179.323 88.2557C179.548 87.9931 179.908 87.8838 180.246 87.9494C180.967 88.1026 181.958 88.5182 182.611 89.7215L184.502 91.6466L183.534 90.159L182.768 87.9494C182.656 87.6213 182.746 87.2712 182.971 87.0306C183.196 86.79 183.557 86.6806 183.894 86.7681C184.525 86.9212 185.403 87.3587 186.011 88.5401L186.822 89.5245L186.529 88.4088C186.462 88.1463 186.552 87.8838 186.777 87.7306C187.002 87.5775 187.295 87.5556 187.52 87.6869C187.971 87.9494 188.579 88.387 188.939 89.0433L191.619 92.8498L194.817 98.5815L195.312 101.25L202.947 134.262C203.442 136.363 202.293 138.463 200.222 139.25L188.106 143.888ZM187.025 133.234L188.804 142.685L199.951 138.419C201.595 137.785 202.519 136.122 202.113 134.437L194.479 101.404L194.006 98.844L190.898 93.2436L188.196 89.437C188.061 89.1526 187.835 88.9339 187.588 88.737L187.79 89.5683L190.493 95.3219L185.268 88.9558C184.795 88.0588 184.165 87.7088 183.692 87.5994H183.669C183.647 87.6212 183.647 87.6432 183.669 87.6432L184.39 89.7433L187.768 94.9062L187.07 95.4531L181.913 90.2027L181.89 90.1371C181.417 89.1964 180.652 88.8901 180.111 88.7588C180.111 88.7588 180.066 88.7589 180.043 88.7807C180.021 88.8026 180.021 88.8245 180.043 88.8245L180.989 91.3841L186.732 98.8221L180.224 93.7687L180.179 93.6593C179.818 92.828 178.872 92.5654 178.152 92.5216L177.724 92.7186L178.129 92.5435L179.503 95.6063L182.588 98.8659L180.404 99.6316L188.398 101.272L194.074 131.812L187.025 133.234Z" fill="black"/>
<path d="M166.419 129.472C166.419 129.472 160.811 133.956 156.938 129.472C156.938 129.472 150.61 118.117 161.081 115.055C161.081 115.055 166.194 113.523 169.594 111.664C170.99 110.92 172.612 110.679 174.166 111.051C176.53 111.642 179.143 113.13 177.161 116.936C173.76 123.434 168.153 123.565 168.153 123.565C168.153 123.565 165 122.143 165 124.265C165 126.387 166.937 127.328 166.937 127.328L166.419 129.472Z" fill="black"/>
<path d="M169.099 136.319L179.323 133.956L190.268 131.353L192.452 142.466L181.868 146.842L176.756 174.253C176.756 174.253 164.257 175.26 160.856 177.403C149.011 184.885 144.642 180.619 144.642 180.619L148.538 152.026H142.21L142.457 139.732L158.266 137.369C158.266 137.391 161.802 142.466 169.099 136.319Z" fill="#00A3FF"/>
<path d="M319.286 195.693H0.400024V196.568H319.286V195.693Z" fill="black"/>
</svg>
