<svg width="292" height="204" viewBox="0 0 292 204" fill="none" xmlns="http://www.w3.org/2000/svg">
<path d="M71.1398 118.426V116.364H70.315V118.426H68.2529V119.251H70.315V121.313H71.1398V119.251H73.2018V118.426H71.1398Z" fill="#383C55"/>
<path d="M282.911 109.147V107.085H282.086V109.147H280.024V109.972H282.086V112.034H282.911V109.972H284.973V109.147H282.911Z" fill="#383C55"/>
<path d="M65.9841 20.479H63.922V18.417H63.0972V20.479H61.0352V21.3039H63.0972V23.3659H63.922V21.3039H65.9841V20.479Z" fill="#383C55"/>
<path d="M78.5636 141.108C76.9758 141.108 75.6768 139.809 75.6768 138.221C75.6768 136.634 76.9758 135.334 78.5636 135.334C80.1514 135.334 81.4505 136.634 81.4505 138.221C81.4505 139.809 80.1514 141.108 78.5636 141.108ZM78.5636 136.159C77.4295 136.159 76.5016 137.087 76.5016 138.221C76.5016 139.355 77.4295 140.283 78.5636 140.283C79.6977 140.283 80.6257 139.355 80.6257 138.221C80.6257 137.087 79.6977 136.159 78.5636 136.159Z" fill="#383C55"/>
<path d="M254.455 23.9842C252.867 23.9842 251.568 22.6851 251.568 21.0973C251.568 19.5095 252.867 18.2104 254.455 18.2104C256.043 18.2104 257.342 19.5095 257.342 21.0973C257.342 22.6851 256.043 23.9842 254.455 23.9842ZM254.455 19.0353C253.321 19.0353 252.393 19.9632 252.393 21.0973C252.393 22.2314 253.321 23.1594 254.455 23.1594C255.589 23.1594 256.517 22.2314 256.517 21.0973C256.517 19.9632 255.589 19.0353 254.455 19.0353Z" fill="#383C55"/>
<path d="M275.488 126.674C273.901 126.674 272.602 125.375 272.602 123.787C272.602 122.199 273.901 120.9 275.488 120.9C277.076 120.9 278.375 122.199 278.375 123.787C278.375 125.375 277.076 126.674 275.488 126.674ZM275.488 121.725C274.354 121.725 273.426 122.653 273.426 123.787C273.426 124.921 274.354 125.849 275.488 125.849C276.623 125.849 277.55 124.921 277.55 123.787C277.55 122.653 276.623 121.725 275.488 121.725Z" fill="#383C55"/>
<path d="M266.52 39.5941C266.52 39.5529 266.54 35.2226 271.035 35.1814C274.747 35.1401 275.159 31.7996 275.18 31.6553L276.005 31.7378C276.005 31.779 275.51 35.9649 271.056 36.0062C267.365 36.0474 267.344 39.4292 267.344 39.5941H266.52Z" fill="#383C55"/>
<path d="M11.5469 148.985C10.9282 148.985 10.4952 148.882 10.4746 148.882L10.6808 148.078C10.8252 148.119 14.1038 148.882 15.4029 145.397C16.9906 141.17 21.0529 142.634 21.0941 142.655L20.8054 143.418L20.9498 143.026L20.8054 143.418C20.6611 143.376 17.4649 142.242 16.1658 145.686C15.1142 148.531 12.8872 148.985 11.5469 148.985Z" fill="#383C55"/>
<path d="M263.323 52.5227V149.088C263.323 154.243 259.137 158.429 253.982 158.429H111.186C106.031 158.429 101.845 154.243 101.845 149.088V52.5227C101.845 47.3676 106.031 43.1816 111.186 43.1816H253.982C259.137 43.1816 263.323 47.3676 263.323 52.5227Z" fill="#181C33"/>
<path d="M253.982 158.841H111.185C105.803 158.841 101.432 154.47 101.432 149.088V52.5225C101.432 47.1406 105.803 42.769 111.185 42.769H253.982C259.364 42.769 263.735 47.1406 263.735 52.5225V149.088C263.735 154.47 259.364 158.841 253.982 158.841ZM111.206 43.5939C106.277 43.5939 102.277 47.5942 102.277 52.5225V149.088C102.277 154.016 106.277 158.017 111.206 158.017H254.002C258.931 158.017 262.931 154.016 262.931 149.088V52.5225C262.931 47.5942 258.931 43.5939 254.002 43.5939H111.206Z" fill="#84879A"/>
<path d="M263.323 52.5227V58.6263H101.865V52.5227C101.865 47.3676 106.051 43.1816 111.206 43.1816H254.003C259.137 43.1816 263.323 47.3676 263.323 52.5227Z" fill="#84879A"/>
<path d="M248.27 86.876H110.938V87.7008H248.27V86.876Z" fill="#84879A"/>
<path d="M248.27 100.486H110.938V101.311H248.27V100.486Z" fill="#84879A"/>
<path d="M248.27 114.095H110.938V114.92H248.27V114.095Z" fill="#84879A"/>
<path d="M248.27 127.705H110.938V128.529H248.27V127.705Z" fill="#84879A"/>
<path d="M222.081 119.25H235.691L228.886 108.115L222.081 119.25Z" fill="#181C32"/>
<path d="M236.433 119.663H221.359L228.906 107.332L236.433 119.663ZM222.823 118.838H234.969L228.906 108.899L222.823 118.838Z" fill="#84879A"/>
<path d="M153.622 108.281H142.281V118.859H153.622V108.281Z" fill="#00A3FF"/>
<path d="M132.589 95.4961H121.248V106.074H132.589V95.4961Z" fill="#181C32"/>
<path d="M133.002 106.466H120.836V95.0625H133.002V106.466ZM121.661 105.641H132.177V95.8873H121.661V105.641Z" fill="#84879A"/>
<path d="M114.857 52.8523C115.882 52.8523 116.713 52.0214 116.713 50.9965C116.713 49.9715 115.882 49.1406 114.857 49.1406C113.832 49.1406 113.001 49.9715 113.001 50.9965C113.001 52.0214 113.832 52.8523 114.857 52.8523Z" fill="#181C33"/>
<path d="M121.867 52.8523C122.892 52.8523 123.722 52.0214 123.722 50.9965C123.722 49.9715 122.892 49.1406 121.867 49.1406C120.842 49.1406 120.011 49.9715 120.011 50.9965C120.011 52.0214 120.842 52.8523 121.867 52.8523Z" fill="#181C33"/>
<path d="M128.877 52.8523C129.902 52.8523 130.733 52.0214 130.733 50.9965C130.733 49.9715 129.902 49.1406 128.877 49.1406C127.852 49.1406 127.021 49.9715 127.021 50.9965C127.021 52.0214 127.852 52.8523 128.877 52.8523Z" fill="#181C33"/>
<path d="M271.9 181.674C273.341 181.335 274.235 179.892 273.897 178.451C273.558 177.01 272.115 176.116 270.674 176.454C269.233 176.793 268.339 178.236 268.678 179.677C269.016 181.118 270.459 182.012 271.9 181.674Z" fill="#84879A"/>
<path d="M263.179 203.855L262.602 202.989C269.798 198.246 271.489 184.637 271.489 184.493L272.52 184.616C272.479 185.194 270.767 198.865 263.179 203.855Z" fill="#84879A"/>
<path d="M275.49 178.822C275.49 178.822 270.953 177.667 267.221 179.894C267.221 179.894 267.509 186.06 271.716 185.524C276.521 184.926 275.49 178.822 275.49 178.822Z" fill="#00A3FF"/>
<path d="M267.116 198.906C267.116 198.906 268.663 195.03 267.714 192.431C266.745 189.833 264.889 189.4 264.271 189.73C263.652 190.06 262.559 190.658 263.631 193.05C264.724 195.442 267.116 198.906 267.116 198.906Z" fill="#84879A"/>
<path d="M256.497 183.111C256.497 183.111 255.157 180.307 256.497 176.678C257.838 173.069 258.766 161.831 250.744 162.367C242.723 162.903 242.187 173.605 242.991 179.09C243.795 184.575 242.599 188.328 241.259 191.401C239.919 194.473 235.629 196.762 236.31 203.587H263.488C263.446 203.587 264.787 192.741 256.497 183.111Z" fill="#181C32"/>
<path d="M263.817 204H235.897L235.856 203.629C235.361 198.659 237.464 195.978 239.134 193.813C239.815 192.927 240.454 192.102 240.846 191.236C242.207 188.122 243.341 184.513 242.557 179.152C241.918 174.781 242.207 168.409 245.135 164.8C246.537 163.068 248.414 162.099 250.703 161.955C253.012 161.81 254.806 162.553 256.023 164.202C258.641 167.708 257.858 174.162 256.868 176.843C255.693 180.018 256.682 182.534 256.827 182.905C265.096 192.555 263.858 203.546 263.838 203.649L263.817 204ZM236.66 203.175H263.075C263.198 201.237 263.425 191.772 256.188 183.379L256.146 183.338L256.126 183.297C256.064 183.173 254.723 180.286 256.105 176.554C257.012 174.1 257.755 167.893 255.363 164.697C254.311 163.295 252.765 162.656 250.764 162.779C248.702 162.924 247.032 163.769 245.774 165.316C243.011 168.718 242.764 174.842 243.382 179.028C244.207 184.616 242.949 188.493 241.609 191.566C241.196 192.514 240.516 193.401 239.794 194.308C238.165 196.411 236.33 198.783 236.66 203.175Z" fill="#383C55"/>
<path d="M250.662 162.305C250.662 162.305 245.445 175.42 250.662 203.525V162.305Z" fill="#181C32"/>
<path d="M250.27 203.588C247.569 189.03 247.713 178.554 248.311 172.327C248.971 165.564 250.249 162.285 250.29 162.141L251.053 162.45C250.992 162.574 245.94 175.812 251.074 203.443L250.27 203.588Z" fill="#383C55"/>
<path d="M243.935 168.266L243.313 168.808L248.232 174.45L248.854 173.908L243.935 168.266Z" fill="#383C55"/>
<path d="M243.202 172.071L242.582 172.616L248.08 178.875L248.7 178.33L243.202 172.071Z" fill="#383C55"/>
<path d="M257.231 184.132L249.006 194.558L249.653 195.069L257.879 184.643L257.231 184.132Z" fill="#383C55"/>
<path d="M258.892 186.555L249.499 198.186L250.141 198.704L259.534 187.073L258.892 186.555Z" fill="#383C55"/>
<path d="M110.071 203.298C110.071 203.298 108.711 197.133 112.134 191.132C112.134 191.132 114.01 185.297 110.938 179.997C107.844 174.677 110.938 168.677 114.546 167.831C118.155 166.965 122.423 169.893 123.454 173.997C124.485 178.1 123.619 181.028 129.805 184.101C135.991 187.173 135.723 203.298 135.723 203.298H110.071Z" fill="#181C32"/>
<path d="M136.096 203.711H109.743L109.681 203.381C109.619 203.113 108.32 197.009 111.764 190.968C111.908 190.473 113.413 185.07 110.588 180.204C109.042 177.544 108.836 174.43 110.032 171.646C110.96 169.481 112.65 167.852 114.444 167.44C118.3 166.532 122.775 169.605 123.847 173.915C124.054 174.719 124.177 175.482 124.301 176.203C124.817 179.193 125.188 181.359 129.972 183.751C136.302 186.905 136.117 202.659 136.117 203.319L136.096 203.711ZM110.403 202.886H135.271C135.25 200.391 134.92 187.132 129.58 184.472C124.425 181.895 123.971 179.317 123.476 176.327C123.352 175.605 123.229 174.884 123.023 174.1C122.053 170.203 118.032 167.419 114.609 168.223C113.063 168.594 111.599 170.017 110.753 171.956C109.661 174.492 109.846 177.338 111.269 179.771C114.403 185.173 112.589 191.009 112.506 191.236L112.465 191.318C109.599 196.35 110.197 201.546 110.403 202.886Z" fill="#383C55"/>
<path d="M123.063 203.546C117.949 192.39 114.155 167.955 114.113 167.708L114.938 167.584C114.979 167.831 118.753 192.164 123.826 203.216L123.063 203.546Z" fill="#383C55"/>
<path d="M96.5039 183.998C97.9844 183.998 99.1846 182.798 99.1846 181.317C99.1846 179.837 97.9844 178.637 96.5039 178.637C95.0234 178.637 93.8232 179.837 93.8232 181.317C93.8232 182.798 95.0234 183.998 96.5039 183.998Z" fill="#84879A"/>
<path d="M110.051 203.608C101.535 200.474 96.7511 187.565 96.5449 187.029L97.5141 186.679C97.5553 186.802 102.339 199.69 110.402 202.66L110.051 203.608Z" fill="#84879A"/>
<path d="M121.276 170.489L116.895 182.235L117.667 182.524L122.049 170.777L121.276 170.489Z" fill="#383C55"/>
<path d="M123.519 176.079L118.451 188.888L119.218 189.191L124.286 176.382L123.519 176.079Z" fill="#383C55"/>
<path d="M92.3389 182.039C92.3389 182.039 96.5042 179.874 100.628 181.173C100.628 181.173 101.762 187.235 97.5352 187.689C92.7513 188.204 92.3389 182.039 92.3389 182.039Z" fill="#00A3FF"/>
<path d="M85.8229 181.854C87.1667 181.854 88.2561 180.764 88.2561 179.421C88.2561 178.077 87.1667 176.987 85.8229 176.987C84.479 176.987 83.3896 178.077 83.3896 179.421C83.3896 180.764 84.479 181.854 85.8229 181.854Z" fill="#84879A"/>
<path d="M105.103 199.69C105.103 199.69 102.711 196.267 103.041 193.525C103.392 190.782 105.103 189.916 105.784 190.102C106.464 190.267 107.66 190.617 107.145 193.195C106.629 195.752 105.103 199.69 105.103 199.69Z" fill="#84879A"/>
<path d="M111.03 193.701L110.542 194.365L123.255 203.704L123.743 203.039L111.03 193.701Z" fill="#383C55"/>
<path d="M110.145 197.555L109.664 198.225L117.168 203.613L117.649 202.943L110.145 197.555Z" fill="#383C55"/>
<path d="M145.972 177.152C145.972 177.152 144.261 173.544 145.972 168.925C147.684 164.306 148.88 149.892 138.611 150.593C128.321 151.274 127.641 164.986 128.672 172.018C129.703 179.049 128.156 183.833 126.445 187.792C124.733 191.731 119.248 194.638 120.094 203.381H154.881C154.881 203.381 156.592 189.504 145.972 177.152Z" fill="#181C32"/>
<path d="M155.252 203.794H119.723L119.682 203.422C119.063 197.113 121.723 193.69 123.868 190.947C124.754 189.813 125.579 188.741 126.074 187.627C127.806 183.627 129.291 178.987 128.281 172.079C127.476 166.512 127.827 158.387 131.559 153.789C133.333 151.603 135.704 150.387 138.611 150.181C141.519 149.995 143.787 150.943 145.334 153.006C148.612 157.398 147.623 165.77 146.406 169.069C144.88 173.214 146.179 176.513 146.365 176.925C151.891 183.359 154.036 190.205 154.86 194.824C155.768 199.835 155.355 203.278 155.335 203.422L155.252 203.794ZM120.465 202.969H154.51C154.675 200.721 155.087 188.39 145.664 177.42L145.622 177.379L145.602 177.338C145.519 177.193 143.828 173.523 145.581 168.801C146.756 165.646 147.705 157.645 144.633 153.521C143.272 151.686 141.251 150.861 138.632 151.026C135.972 151.212 133.786 152.304 132.178 154.325C128.631 158.717 128.281 166.574 129.085 171.976C130.136 179.09 128.528 184.06 126.837 187.957C126.301 189.174 125.456 190.287 124.528 191.463C122.404 194.164 120.012 197.216 120.465 202.969Z" fill="#383C55"/>
<path d="M88.8546 188.638C88.8546 188.638 83.514 189.071 82.6479 187.792C81.8025 186.514 84.1119 185.38 87.1638 187.318C87.5968 187.586 88.8546 188.638 88.8546 188.638Z" fill="#84879A"/>
<path d="M90.5245 191.36C90.5245 191.36 85.39 192.886 84.2765 191.814C83.1836 190.741 85.2044 189.154 88.5862 190.411C89.0811 190.576 90.5245 191.36 90.5245 191.36Z" fill="#84879A"/>
<path d="M101.866 203.711C92.1332 196.184 85.8646 185.152 85.8027 185.049L86.71 184.534C86.7719 184.637 92.9374 195.504 102.505 202.886L101.866 203.711Z" fill="#84879A"/>
<path d="M138.117 203.36C134.652 184.719 134.838 171.316 135.601 163.357C136.426 154.696 138.075 150.531 138.137 150.345L138.9 150.655C138.88 150.696 137.23 154.923 136.426 163.501C135.663 171.399 135.498 184.699 138.941 203.216L138.117 203.36Z" fill="#383C55"/>
<path d="M129.798 158.248L129.176 158.79L135.476 166.018L136.098 165.476L129.798 158.248Z" fill="#383C55"/>
<path d="M82.0283 180.08C82.0283 180.08 85.575 178.018 89.5754 179.296C89.5754 179.296 90.6064 184.802 86.771 185.215C82.3995 185.689 82.0283 180.08 82.0283 180.08Z" fill="#00A3FF"/>
<path d="M128.841 163.082L128.222 163.626L135.258 171.636L135.877 171.092L128.841 163.082Z" fill="#383C55"/>
<path d="M146.994 178.553L136.47 191.893L137.117 192.403L147.642 179.064L146.994 178.553Z" fill="#383C55"/>
<path d="M149.143 181.651L137.109 196.556L137.751 197.074L149.785 182.169L149.143 181.651Z" fill="#383C55"/>
<path d="M179.276 77.0396V102.561C172.299 102.479 166.659 96.798 166.659 89.8002C166.659 82.8024 172.299 77.1219 179.276 77.0396Z" fill="#00A3FF"/>
<path d="M159.395 73.4385L160.486 76.7316C160.486 76.7316 159.827 79.366 163.326 84.8408C163.326 84.8408 164.314 85.8287 164.973 85.6023C164.973 85.6023 166.496 86.2609 167.607 86.0345C167.607 86.0345 169.13 87.3518 169.789 87.1254C169.789 87.1254 171.312 88.6484 171.538 87.1254C171.538 87.1254 170.653 84.4909 169.357 83.1943L166.722 79.2631C166.722 79.2631 170.653 81.6712 171.971 80.5804L169.13 77.9459C169.13 77.9459 167.154 76.1964 165.631 75.9701L158.839 49.9135L162.338 45.0974L153.365 38.0996L148.404 47.135C147.664 48.4728 147.643 50.0782 148.322 51.4366L159.395 73.4385Z" fill="#181C32"/>
<path d="M171.003 88.2155C170.468 88.2155 169.933 87.8038 169.665 87.5569C169.665 87.5569 169.665 87.5569 169.645 87.5569C168.924 87.5569 167.936 86.8365 167.483 86.466C166.496 86.5895 165.322 86.1779 164.952 86.0132C164.129 86.1367 163.244 85.2929 163.058 85.1076L162.997 85.0459C159.827 80.0857 159.992 77.3689 160.074 76.7514L159.024 73.6024L147.972 51.6211C147.231 50.1392 147.252 48.3898 148.054 46.9285L153.241 37.4814L162.914 45.035L159.292 50.0157L165.96 75.6194C167.545 75.9899 169.315 77.5747 169.398 77.6365L172.588 80.5797L172.217 80.8884C171.25 81.6911 169.315 81.0324 167.957 80.3944L169.645 82.9466C171.003 84.3255 171.867 86.8983 171.909 87.0217L171.929 87.1041L171.909 87.207C171.806 87.8656 171.497 88.1126 171.229 88.1949C171.188 88.1949 171.106 88.2155 171.003 88.2155ZM169.912 86.6513L170.097 86.8365C170.427 87.1658 170.9 87.4334 171.023 87.3922C171.044 87.3922 171.085 87.3305 171.126 87.1658C170.962 86.6924 170.159 84.5725 169.068 83.4817L169.007 83.4199L165.343 77.9246L166.928 78.8919C168.204 79.6741 170.159 80.5385 171.209 80.415L168.842 78.2333C168.821 78.2127 166.948 76.5662 165.569 76.3604L165.302 76.3192L165.24 76.0517L158.407 49.8099L161.782 45.1584L153.508 38.6958L148.775 47.2989C148.116 48.5133 148.075 49.9746 148.713 51.2301L159.786 73.2731L160.918 76.6897L160.897 76.8132C160.897 76.8338 160.362 79.3653 163.676 84.5519C164.005 84.8812 164.602 85.2723 164.87 85.19L165.014 85.1488L165.158 85.2106C165.178 85.2106 166.598 85.8074 167.545 85.6222L167.751 85.581L167.895 85.7045C168.595 86.3014 169.459 86.7953 169.686 86.713L169.912 86.6513Z" fill="#84879A"/>
<path d="M150.524 40.6925L159.889 48.4518L164.973 43.1005H210.726C210.726 43.1005 215.069 41.4334 212.825 38.3873C211.735 36.9054 208.277 33.4889 205.004 30.4428C200.559 26.3264 195.907 22.1483 193.005 21.6338C187.963 20.7488 181.829 20.9752 181.829 20.9752C181.829 20.9752 170.221 20.5429 159.93 26.6763C159.951 26.6969 152.932 36.7614 150.524 40.6925Z" fill="#00A3FF"/>
<path d="M183.022 23.3214C182.961 23.1567 178.865 18.9169 178.865 18.9169C178.865 18.9169 179.297 12.1249 175.798 14.7594L172.011 10.5195L162.914 19.452C162.914 19.452 169.294 34.4973 176.045 26.6762L177.568 28.6521C177.568 28.6521 179.729 27.9523 181.191 26.7585C182.755 25.5236 183.022 23.3214 183.022 23.3214Z" fill="#181C32"/>
<path d="M171.99 29.3515C171.764 29.3515 171.517 29.331 171.29 29.2898C166.392 28.5283 162.708 19.9868 162.564 19.6164L162.461 19.3488L172.073 9.92236L175.901 14.2034C176.683 13.6888 177.383 13.6065 177.959 13.9152C179.4 14.6973 179.359 17.8875 179.317 18.7519C183.351 22.93 183.413 23.0947 183.434 23.1976L183.454 23.2799L183.434 23.3623C183.413 23.4652 183.125 25.7292 181.478 27.067C179.976 28.2813 177.815 29.0017 177.712 29.0222L177.444 29.1046L176.045 27.2934C174.769 28.6723 173.41 29.3515 171.99 29.3515ZM163.428 19.5546C164.066 20.9748 167.401 27.8491 171.414 28.4871C172.916 28.7135 174.378 28.0343 175.757 26.4084L176.086 26.0173L177.733 28.1578C178.35 27.9314 179.873 27.314 180.964 26.4289C182.116 25.4822 182.508 23.9385 182.59 23.424C182.117 22.8683 179.955 20.6043 178.576 19.1842L178.453 19.0607L178.474 18.8754C178.556 17.4759 178.391 15.0884 177.547 14.6356C177.197 14.4503 176.703 14.5944 176.065 15.0884L175.757 15.3148L172.011 11.1161L163.428 19.5546Z" fill="#84879A"/>
<path d="M178.454 15.1914C177.136 13.442 174.831 15.1914 175.202 17.0026C175.572 18.8138 174.399 19.3489 174.399 19.3489C174.399 19.3489 172.114 17.5583 170.941 16.2205C169.748 14.8621 169.027 16.2411 169.027 16.2411C168.06 21.1395 164.314 20.7691 164.314 20.7691C158.119 18.0934 162.029 12.1659 163.964 10.3547C165.322 9.07862 167.484 8.11128 167.484 8.11128C167.463 8.04954 167.422 7.98779 167.401 7.92605C167.216 7.55557 167.051 7.20569 166.907 6.87638C165.569 3.93319 165.858 3.10991 166.537 1.89559C166.969 1.0929 170.941 -1.19167 173.843 0.784176C175.84 2.14257 175.222 4.92111 174.625 6.54707C174.461 7.02045 174.296 7.37034 174.193 7.59674C174.131 7.72023 174.09 7.78197 174.09 7.78197C178.968 10.6634 178.454 15.1914 178.454 15.1914Z" fill="#84879A"/>
<path d="M199.159 37.7074L189.938 39.3951L186.213 40.2801L182.92 39.1892L177.219 40.2801L174.255 43.1204H209.717H211.137C211.137 43.1204 216.283 42.3588 212.125 37.0899L205.333 30.9565L198.212 36.7606L199.159 37.7074Z" fill="#181C32"/>
<path d="M211.199 43.5123H173.267L177.054 39.8693L182.981 38.7373L186.254 39.8282L189.876 38.9843L198.356 37.4407L197.677 36.7409L205.415 30.4429L212.516 36.8644C214.018 38.7785 214.533 40.3633 214.06 41.5982C213.422 43.2036 211.363 43.5329 211.281 43.5329L211.199 43.5123ZM175.304 42.689H211.137C211.343 42.6479 212.825 42.3391 213.257 41.2483C213.627 40.3221 213.133 38.9637 211.857 37.3583L205.354 31.4925L198.85 36.7821L199.982 37.9552L190.02 39.787L186.192 40.6926L182.899 39.6018L177.424 40.6514L175.304 42.689Z" fill="#84879A"/>
<path d="M174.586 6.54708C174.422 7.02046 174.257 7.37035 174.154 7.59675C172.816 7.37035 170.017 7.0822 167.383 7.92605C167.197 7.55558 167.033 7.20569 166.889 6.87639C168.329 6.3001 171.355 5.41508 174.586 6.54708Z" fill="#181C32"/>
<path d="M167.155 8.44045L166.991 8.13172C166.785 7.72009 166.62 7.39078 166.497 7.08205L166.312 6.691L166.703 6.52634C168.267 5.88831 171.354 5.0033 174.709 6.17646L175.1 6.32053L174.956 6.71158C174.791 7.18496 174.627 7.55543 174.503 7.78183L174.38 8.06998L174.071 8.02881C172.692 7.80241 169.996 7.53485 167.485 8.35812L167.155 8.44045ZM167.423 7.12322C167.464 7.22613 167.526 7.32904 167.567 7.43194C169.975 6.75275 172.445 6.9174 173.886 7.1438C173.927 7.04089 173.968 6.93798 174.03 6.81449C171.375 6.0118 168.905 6.58809 167.423 7.12322Z" fill="#84879A"/>
<path d="M40.0844 191.524L39.4658 199.236H31.4238L32.0424 191.524H40.0844Z" fill="#181C32"/>
<path d="M39.8385 199.649H30.9717L31.6522 191.112H40.519L39.8385 199.649ZM31.879 198.824H39.0961L39.6529 191.937H32.4358L31.879 198.824Z" fill="#84879A"/>
<path d="M31.4259 196.721C31.4259 196.721 35.7974 200.041 39.4679 196.721L50.3554 202.391C50.8297 202.639 50.6648 203.36 50.108 203.36H30.8691C30.2711 203.36 29.8175 202.783 29.9825 202.206L31.4259 196.721Z" fill="#84879A"/>
<path d="M60.0879 191.524L60.9127 199.236H52.8707L52.0459 191.524H60.0879Z" fill="#181C32"/>
<path d="M61.3669 199.649H52.5001L51.5928 191.112H60.4596L61.3669 199.649ZM53.2424 198.824H60.4596L59.7173 191.937H52.5001L53.2424 198.824Z" fill="#84879A"/>
<path d="M52.6642 196.721C52.6642 196.721 57.0357 200.041 60.7061 196.721L71.5937 202.391C72.068 202.639 71.9031 203.36 71.3463 203.36H52.1074C51.5094 203.36 51.0558 202.783 51.2207 202.206L52.6642 196.721Z" fill="#84879A"/>
<path d="M48.9735 90.4229L57.6341 131.726L64.2326 192.556H50.6231L45.6742 139.974L32.9102 99.2072L48.9735 90.4229Z" fill="#84879A"/>
<path d="M30.0218 61.4099L29.4445 53.2855C29.4445 53.2855 24.5986 50.7698 25.1966 47.2849C25.7946 43.8 27.3205 40.8926 35.0738 37.4077C35.0738 37.4077 46.8893 49.2232 37.9813 52.6875L39.5278 60.2345L30.0218 61.4099Z" fill="#181C32"/>
<path d="M29.6311 61.8634L29.0331 53.5328C28.0639 52.9966 24.2079 50.5634 24.7646 47.2023C25.4039 43.3463 27.2597 40.4388 34.8687 37.0158L35.1367 36.8921L35.3429 37.0983C35.6316 37.387 42.6219 44.4392 41.5909 49.4293C41.261 50.9758 40.2094 52.1718 38.436 52.9348L40.0031 60.585L29.6311 61.8634ZM34.9511 37.9025C27.1566 41.4698 26.0637 44.3979 25.5895 47.3466C25.0739 50.5016 29.5898 52.8935 29.6311 52.9142L29.8373 53.0173L30.394 60.9355L38.9927 59.8839L37.4668 52.4399L37.7968 52.3162C39.5083 51.6563 40.4774 50.6459 40.7661 49.285C41.6322 45.1815 36.0853 39.0985 34.9511 37.9025Z" fill="#84879A"/>
<path d="M41.6532 64.812L58.5619 72.6478L82.4816 64.812V68.7299L58.7681 83.1642L33.8174 72.6478L41.6532 64.812Z" fill="#181C32"/>
<path d="M58.8094 83.6181L33.0957 72.7717L41.5707 64.2967L58.6032 72.1943L82.9147 64.2349V68.9569L58.8094 83.6181ZM34.5391 72.5037L58.7269 82.6902L82.0692 68.4827V65.369L58.5413 73.081L41.7563 65.3071L34.5391 72.5037Z" fill="#84879A"/>
<path d="M29.4462 49.4086C29.4462 49.4086 30.8072 51.5325 29.4462 53.2852C29.4462 53.2852 16.2904 49.986 22.4765 40.5212C22.4765 40.5212 27.5079 31.2214 33.1167 32.5823C38.7254 33.9433 40.8906 38.8097 37.8594 40.7274C34.8488 42.6451 30.003 45.367 30.003 45.367L30.9721 47.4909L30.3948 48.0683C30.3948 48.0683 27.4873 46.3361 27.0955 47.4909C26.7243 48.6456 27.5079 50.3777 29.4462 49.4086Z" fill="#84879A"/>
<path d="M29.5907 192.556L32.8899 136.056L24.4355 101.414L45.6746 93.1655L50.6235 132.344L42.5815 192.556H29.5907Z" fill="#6A6E83"/>
<path d="M67.0993 84.0505L37.0966 112.177C35.6326 113.538 33.3437 113.476 31.9827 112.012L17.6515 96.629L16.6411 95.5567C15.2802 94.0926 15.3627 91.8244 16.8061 90.4635C23.3428 84.3392 40.2515 68.4821 46.8088 62.3372C48.2729 60.9762 50.5618 61.0381 51.9227 62.5228L53.0156 63.6981L67.2437 78.9779C68.6253 80.4213 68.5428 82.6895 67.0993 84.0505Z" fill="#00A3FF"/>
<path d="M52.6888 72.3594L25.8701 97.3276L26.8537 98.3841L53.6723 73.4159L52.6888 72.3594Z" fill="#181C32"/>
<path d="M40.2087 88.707L28.2256 99.8633L29.2091 100.92L41.1923 89.7634L40.2087 88.707Z" fill="#181C32"/>
<path d="M55.0441 74.9003L41.3857 87.6162L42.3693 88.6727L56.0276 75.9567L55.0441 74.9003Z" fill="#181C32"/>
<path d="M57.4016 77.437L30.583 102.405L31.5666 103.462L58.3852 78.4935L57.4016 77.437Z" fill="#181C32"/>
<path d="M59.7435 79.9605L32.9248 104.929L33.9084 105.985L60.727 81.017L59.7435 79.9605Z" fill="#181C32"/>
<path d="M53.0362 63.6775L17.6515 96.629L16.6411 95.5567C15.2802 94.0926 15.3627 91.8244 16.8061 90.4635C23.3428 84.3392 40.2515 68.4821 46.8088 62.3372C48.2729 60.9762 50.5618 61.0381 51.9227 62.5228L53.0362 63.6775Z" fill="#84879A"/>
<path d="M40.4067 73.5552C40.8235 73.1672 40.8468 72.5148 40.4588 72.0981C40.0708 71.6813 39.4184 71.658 39.0017 72.046C38.5849 72.434 38.5616 73.0864 38.9496 73.5031C39.3376 73.9199 39.99 73.9432 40.4067 73.5552Z" fill="#181C32"/>
<path d="M43.9497 70.2535C44.3665 69.8654 44.3898 69.2131 44.0018 68.7963C43.6138 68.3795 42.9614 68.3562 42.5446 68.7442C42.1279 69.1322 42.1046 69.7846 42.4926 70.2014C42.8806 70.6181 43.533 70.6415 43.9497 70.2535Z" fill="#181C32"/>
<path d="M47.4966 66.9512C47.9134 66.5632 47.9367 65.9108 47.5487 65.4941C47.1607 65.0773 46.5083 65.054 46.0915 65.442C45.6748 65.83 45.6515 66.4824 46.0395 66.8991C46.4275 67.3159 47.0798 67.3392 47.4966 66.9512Z" fill="#181C32"/>
<path d="M73.8832 74.2765L94.7923 61.4299L73.8213 50.7485L73.8832 74.2765Z" fill="#00A3FF"/>
<path d="M46.6227 95.2068C46.6227 95.2068 49.0559 100.259 50.5406 100.444C50.5406 100.444 51.8396 100.816 51.8396 99.5165C51.8396 99.5165 53.9017 99.8876 53.7161 98.2174C53.7161 98.2174 55.2008 98.403 55.2008 97.1039C55.2008 97.1039 56.8917 96.9183 56.4999 95.6192C56.1287 94.3201 54.809 92.6292 54.809 92.6292C54.809 92.6292 56.4999 93.9283 57.6134 93.3716C57.6134 93.3716 56.3143 90.5672 54.0667 89.2681C54.0667 89.2681 51.8191 88.7113 49.2003 90.196L40.7871 89.0825V95.6192L46.6227 95.2068Z" fill="#181C32"/>
<path d="M50.9324 100.898C50.7056 100.898 50.5406 100.857 50.4582 100.836C48.9529 100.609 46.9939 96.8768 46.3753 95.6396L40.416 96.0314V88.5874L49.1591 89.7422C51.8397 88.2781 54.108 88.8142 54.1905 88.8349L54.2524 88.8555L54.2936 88.8761C56.6237 90.237 57.9434 93.0414 58.0053 93.1651L58.1702 93.5363L57.8196 93.7219C57.2835 93.99 56.6649 93.9281 56.1082 93.7425C56.4381 94.2786 56.7474 94.8973 56.9124 95.4746C57.0773 96.052 56.9124 96.4438 56.768 96.6912C56.4587 97.1449 55.9432 97.3511 55.5927 97.4336C55.5102 97.8254 55.3246 98.0728 55.1596 98.2171C54.8503 98.5058 54.4379 98.5883 54.1286 98.6089C54.0874 99.042 53.8811 99.3307 53.6956 99.4956C53.2625 99.908 52.6233 99.9699 52.2109 99.9493C52.1284 100.3 51.9429 100.527 51.7779 100.65C51.5098 100.836 51.2005 100.898 50.9324 100.898ZM46.8702 94.7735L46.9939 95.021C47.9631 97.0212 49.7158 99.908 50.6025 100.011L50.6644 100.032C50.7675 100.052 51.118 100.114 51.283 99.9699C51.3861 99.8874 51.448 99.7224 51.448 99.4956V99.0007L51.9428 99.0832C52.1696 99.1245 52.8502 99.1657 53.1595 98.877C53.2213 98.8358 53.3657 98.6708 53.3244 98.2171L53.2626 97.7016L53.7781 97.7635C53.9224 97.7841 54.376 97.7841 54.6235 97.5573C54.7472 97.4542 54.8091 97.2686 54.8091 97.0418V96.6706L55.1803 96.6294C55.3659 96.6088 55.902 96.485 56.0876 96.1757C56.17 96.0314 56.1906 95.8664 56.1288 95.6396C55.7782 94.423 54.541 92.8146 54.5204 92.794L52.4996 90.1958L55.0978 92.2166C55.4277 92.4847 56.335 93.0208 57.0361 93.0208C56.5825 92.2166 55.4896 90.5051 53.943 89.5772C53.6131 89.5153 51.6542 89.206 49.4478 90.4845L49.324 90.5463L41.2408 89.4741V95.1035L46.8702 94.7735Z" fill="#84879A"/>
<path d="M45.7781 98.5258V89.0404L31.6531 85.535L30.6633 77.2249L47.2215 61.7184C47.2215 61.7184 44.9533 57.8005 39.2827 56.8726C39.2827 56.8726 38.0454 63.0587 29.591 58.7284L20.3737 64.8733C19.5695 65.4094 19.1365 66.3373 19.219 67.2859L21.3429 90.4839C21.5285 92.5047 23.0338 94.1543 25.0133 94.5255L45.7781 98.5258Z" fill="#181C32"/>
<path d="M46.1909 99.0214L24.9312 94.9385C22.7661 94.5261 21.1371 92.7115 20.9309 90.5257L18.807 67.3278C18.7039 66.2143 19.2194 65.142 20.1473 64.544L29.5708 58.2548L29.777 58.3579C32.7464 59.8838 35.0971 60.2343 36.7674 59.4507C38.4789 58.6259 38.8707 56.8113 38.8707 56.7907L38.9531 56.3989L39.3449 56.4608C45.1393 57.4093 47.4694 61.3478 47.5725 61.5128L47.7374 61.8015L31.0968 77.3905L32.0247 85.2057L46.1909 88.7112V99.0214ZM29.6121 59.2033L20.5803 65.2245C19.8999 65.6781 19.5287 66.4617 19.6112 67.2659L21.7351 90.4639C21.9 92.2785 23.2816 93.8044 25.0756 94.1549L45.3455 98.0522V89.3916L31.2617 85.8861L30.2101 77.0812L46.6652 61.6778C46.0466 60.8323 43.8608 58.1929 39.5511 57.3681C39.3243 58.0486 38.6851 59.4508 37.1179 60.2137C35.2621 61.0798 32.7464 60.7498 29.6121 59.2033Z" fill="#84879A"/>
<path d="M76.4199 72.7719C76.4199 72.7719 78.915 73.2049 80.1316 72.4007C80.1316 72.4007 81.0801 72.4008 81.3482 71.5966C81.3482 71.5966 82.4204 71.5965 82.8328 70.648C82.8328 70.648 83.7814 70.5037 84.0495 69.6995C84.0495 69.6995 85.1217 69.4314 85.1217 68.7509C85.1217 68.7509 85.1217 65.3898 84.7093 64.7299C84.2969 64.0495 82.9566 64.0495 82.8328 64.8743C82.8328 64.8743 81.6162 64.6062 81.4925 65.8228C81.4925 65.8228 80.0078 65.5548 80.1522 66.7714C80.1522 66.7714 78.9356 66.5033 79.0799 67.7199L79.513 69.9263L76.4199 72.7719Z" fill="#181C32"/>
<path d="M77.8839 73.3081C77.0797 73.3081 76.3993 73.205 76.358 73.1844L75.5332 73.0401L79.0593 69.7614L78.6469 67.7406C78.585 67.122 78.7912 66.7921 78.9974 66.6065C79.2243 66.4003 79.5129 66.3384 79.7398 66.3178C79.8016 66.0291 79.946 65.8435 80.0697 65.7404C80.379 65.4517 80.8327 65.3899 81.1626 65.3899C81.2863 65.0393 81.4719 64.8331 81.6575 64.7094C81.9668 64.4826 82.3173 64.4413 82.5647 64.4413C82.7297 64.1527 83.0391 63.9465 83.4308 63.864C83.9876 63.7609 84.7299 63.9464 85.0805 64.5238C85.5135 65.2662 85.5341 68.1943 85.5341 68.7716C85.5341 69.5346 84.7506 69.9058 84.3588 70.0501C84.0495 70.6687 83.4515 70.9162 83.1215 71.0193C82.7297 71.7203 82.0286 71.9266 81.6368 71.9884C81.2863 72.6483 80.5646 72.7926 80.2759 72.8132C79.5954 73.205 78.6675 73.3081 77.8839 73.3081ZM77.3684 72.4627C78.1932 72.5039 79.2861 72.4627 79.9047 72.0503L80.0078 71.9884H80.1316C80.1522 71.9884 80.7708 71.9678 80.9564 71.4729L81.0595 71.1842H81.3482C81.3688 71.1842 82.1524 71.1636 82.4411 70.5037L82.5235 70.2975L82.7504 70.2563C82.7504 70.2563 83.4515 70.1326 83.637 69.5965L83.6989 69.3902L83.9257 69.3284C84.1938 69.2665 84.6887 69.0397 84.6887 68.7922C84.6887 67.2251 84.5649 65.328 84.3381 64.9775C84.2144 64.7713 83.8638 64.6475 83.5545 64.7094C83.4102 64.73 83.2453 64.7919 83.2246 64.9775L83.1628 65.4105L82.7297 65.3074C82.6266 65.2868 82.3173 65.2662 82.1111 65.4105C81.9874 65.493 81.9049 65.6579 81.8843 65.8848L81.843 66.3178L81.41 66.2353C81.2244 66.1941 80.812 66.1941 80.6264 66.359C80.6058 66.3797 80.5234 66.4621 80.544 66.7302L80.6058 67.3076L80.0491 67.1839C79.946 67.1632 79.6779 67.1426 79.5542 67.2457C79.4511 67.3282 79.4717 67.5344 79.4717 67.6581L79.9666 70.0913L77.3684 72.4627Z" fill="#84879A"/>
<path d="M291.985 203.175H0V204H291.985V203.175Z" fill="black"/>
</svg>
