<svg width="423" height="311" viewBox="0 0 423 311" fill="none" xmlns="http://www.w3.org/2000/svg">
<path d="M318.632 245.576H315.646V242.59H314.451V245.576H311.465V246.771H314.451V249.757H315.646V246.771H318.632V245.576Z" fill="white"/>
<path d="M116.464 214.818V211.832H115.269V214.818H112.283V216.013H115.269V218.999H116.464V216.013H119.45V214.818H116.464Z" fill="white"/>
<path d="M82.419 32.3577H79.4327V29.3715H78.2382V32.3577H75.252V33.5522H78.2382V36.5385H79.4327V33.5522H82.419V32.3577Z" fill="white"/>
<path d="M135.275 235.722C132.976 235.722 131.095 233.84 131.095 231.541C131.095 229.242 132.976 227.36 135.275 227.36C137.575 227.36 139.456 229.242 139.456 231.541C139.456 233.84 137.575 235.722 135.275 235.722ZM135.275 228.555C133.633 228.555 132.289 229.899 132.289 231.541C132.289 233.183 133.633 234.527 135.275 234.527C136.918 234.527 138.262 233.183 138.262 231.541C138.262 229.899 136.918 228.555 135.275 228.555Z" fill="white"/>
<path d="M278.915 10.2593H275.929V7.27307H274.734V10.2593H271.748V11.4538H274.734V14.4401H275.929V11.4538H278.915V10.2593Z" fill="white"/>
<path d="M301.312 8.76619C299.012 8.76619 297.131 6.88484 297.131 4.58543C297.131 2.28601 299.012 0.404663 301.312 0.404663C303.611 0.404663 305.492 2.28601 305.492 4.58543C305.492 6.88484 303.611 8.76619 301.312 8.76619ZM301.312 1.59917C299.669 1.59917 298.325 2.94298 298.325 4.58543C298.325 6.22787 299.669 7.57168 301.312 7.57168C302.954 7.57168 304.298 6.22787 304.298 4.58543C304.298 2.94298 302.954 1.59917 301.312 1.59917Z" fill="white"/>
<path d="M387.168 44.5117C387.168 44.452 387.198 38.1809 393.708 38.1211C399.113 38.0614 399.68 33.2237 399.71 33.0146L400.905 33.1341C400.905 33.1938 400.188 39.2559 393.738 39.3156C388.422 39.3754 388.362 44.3027 388.362 44.5117H387.168Z" fill="white"/>
<path d="M41.9555 74.3743H40.761H41.3583H40.761C40.761 74.1653 40.7312 69.2379 35.3858 69.1782C28.9056 69.1185 28.2188 63.0564 28.2188 62.9966L29.4133 62.8772C29.4431 63.0862 30.0404 67.924 35.4156 67.9837C41.9257 68.0733 41.9555 74.3146 41.9555 74.3743Z" fill="white"/>
<path d="M105.266 38.1211V169.009C105.266 175.668 110.671 181.043 117.3 181.043H326.428C333.087 181.043 338.463 175.638 338.463 169.009V38.1211C338.463 31.4617 333.057 26.0865 326.428 26.0865H117.3C110.671 26.0865 105.266 31.4916 105.266 38.1211Z" fill="#00A3FF"/>
<path d="M326.458 181.67H117.301C110.343 181.67 104.669 175.997 104.669 169.039V38.121C104.669 31.163 110.343 25.4891 117.301 25.4891H326.428C333.386 25.4891 339.06 31.163 339.06 38.121V169.009C339.09 175.997 333.416 181.67 326.458 181.67ZM117.301 26.6836C111 26.6836 105.863 31.82 105.863 38.121V169.009C105.863 175.31 111 180.446 117.301 180.446H326.428C332.73 180.446 337.866 175.31 337.866 169.009V38.121C337.866 31.82 332.73 26.6836 326.428 26.6836H117.301Z" fill="white"/>
<path d="M151.312 43.7352V98.1448H291.906V75.9868C291.906 75.9868 281.693 61.6527 263.984 79.839C260.102 83.8108 250.755 94.7703 242.334 84.6469C236.929 78.1667 231.553 59.9207 226.447 54.7843C222.833 51.171 213.636 48.9313 207.902 59.3533C205.304 64.1015 201.123 76.4944 199.481 79.3314C197.45 82.8253 187.924 88.9471 183.355 78.8536C180.04 71.5074 176.367 54.3065 169.648 49.7376C162.869 45.1984 151.312 43.7352 151.312 43.7352Z" fill="#50CD89"/>
<path d="M296.834 102.833H146.864V38.33H296.834V102.833ZM148.059 101.639H295.64V39.5245H148.059V101.639Z" fill="white"/>
<path d="M269.36 94.0238C260.61 94.0238 254.996 80.3169 251.502 71.7762C250.905 70.313 250.397 69.0587 249.949 68.0733C245.35 57.8901 243.768 55.6803 239.916 54.1872C236.81 52.9628 233.824 52.9926 231.016 54.2469C227.313 55.8893 224.626 59.4728 223.611 62.2799C222.804 64.4599 222.088 66.4607 221.46 68.2226C218.116 77.5098 216.593 81.7503 212.92 85.8116C210.083 88.9472 206.768 90.4403 203.364 90.1118C199.452 89.7535 196.107 87.0957 194.644 84.7366C193.36 82.6761 192.434 80.4662 191.359 77.898C189.478 73.3589 187.118 67.685 181.445 60.7271C173.352 50.7828 151.701 55.9192 151.492 55.949L151.224 54.7844C152.149 54.5754 173.83 49.439 182.4 59.9506C188.164 67.0281 190.553 72.7915 192.494 77.4202C193.539 79.9287 194.435 82.1087 195.689 84.0796C197.003 86.17 200.019 88.559 203.513 88.8875C206.589 89.1562 209.456 87.8423 212.084 84.9456C215.607 81.0635 217.1 76.8827 220.385 67.7448C221.012 65.9829 221.729 63.9821 222.535 61.7722C223.64 58.7263 226.567 54.874 230.569 53.0524C233.674 51.6488 236.989 51.6488 240.393 52.9926C244.783 54.7247 246.605 57.6512 251.054 67.5059C251.532 68.5511 252.04 69.8053 252.637 71.2685C256.4 80.4364 262.671 95.7559 272.197 92.2321C276.437 90.6792 277.453 87.3346 279.513 74.8819C280.051 71.6866 281.424 69.2678 283.455 67.8941C285.605 66.4607 288.502 66.1322 292.026 66.9385L291.757 68.1031C288.562 67.3566 285.993 67.6253 284.112 68.8795C281.872 70.3727 281.006 73.0902 280.678 75.091C278.498 88.0812 277.423 91.5751 272.585 93.3669C271.48 93.8148 270.405 94.0238 269.36 94.0238Z" fill="white"/>
<path d="M268.106 142.162L249.054 144.342L254.339 125.32C261.865 127.44 267.509 134.099 268.106 142.162Z" fill="#50CD89"/>
<path d="M249.202 163.156C238.421 163.156 229.642 154.376 229.642 143.596C229.642 132.815 238.421 124.036 249.202 124.036C250.993 124.036 252.785 124.275 254.487 124.752C262.371 126.962 268.075 133.92 268.702 142.103C268.732 142.58 268.762 143.088 268.762 143.596C268.762 154.376 259.982 163.156 249.202 163.156ZM249.202 125.23C239.078 125.23 230.836 133.472 230.836 143.596C230.836 153.719 239.078 161.961 249.202 161.961C259.325 161.961 267.567 153.719 267.567 143.596C267.567 143.118 267.537 142.64 267.507 142.192C266.94 134.518 261.565 127.978 254.159 125.887C252.546 125.469 250.874 125.23 249.202 125.23Z" fill="white"/>
<path d="M310.808 142.162L291.756 144.342L306.03 130.964C308.748 133.98 310.48 137.862 310.808 142.162Z" fill="#50CD89"/>
<path d="M291.907 163.156C281.126 163.156 272.347 154.376 272.347 143.596C272.347 132.815 281.126 124.036 291.907 124.036C293.698 124.036 295.49 124.275 297.192 124.752C300.776 125.768 303.971 127.769 306.48 130.546C308.421 132.726 309.884 135.324 310.69 138.131C311.078 139.415 311.317 140.759 311.407 142.103C311.437 142.58 311.467 143.088 311.467 143.596C311.467 147.418 310.362 151.121 308.301 154.287C304.658 159.841 298.536 163.156 291.907 163.156ZM291.907 125.23C281.783 125.23 273.541 133.472 273.541 143.596C273.541 153.719 281.783 161.961 291.907 161.961C298.118 161.961 303.882 158.856 307.286 153.63C309.227 150.643 310.272 147.179 310.272 143.596C310.272 143.118 310.242 142.64 310.212 142.192C310.123 140.908 309.884 139.654 309.526 138.459C308.779 135.831 307.405 133.383 305.584 131.352C303.254 128.724 300.238 126.843 296.864 125.917C295.251 125.469 293.579 125.23 291.907 125.23Z" fill="white"/>
<path d="M124.109 156.944L123.153 156.228L137.965 137.086L150.269 153.271L172.307 130.635L189.03 147.956L205.305 129.919L206.201 130.695L189.03 149.688L172.307 132.367L150.149 155.123L137.965 139.057L124.109 156.944Z" fill="white"/>
<path d="M205.454 132.994C206.608 132.994 207.544 132.059 207.544 130.904C207.544 129.75 206.608 128.814 205.454 128.814C204.299 128.814 203.363 129.75 203.363 130.904C203.363 132.059 204.299 132.994 205.454 132.994Z" fill="#50CD89"/>
<path d="M189.178 150.165C190.333 150.165 191.269 149.23 191.269 148.075C191.269 146.921 190.333 145.985 189.178 145.985C188.024 145.985 187.088 146.921 187.088 148.075C187.088 149.23 188.024 150.165 189.178 150.165Z" fill="#50CD89"/>
<path d="M172.306 133.89C173.461 133.89 174.397 132.954 174.397 131.8C174.397 130.645 173.461 129.71 172.306 129.71C171.152 129.71 170.216 130.645 170.216 131.8C170.216 132.954 171.152 133.89 172.306 133.89Z" fill="#50CD89"/>
<path d="M150.21 155.989C151.364 155.989 152.3 155.053 152.3 153.898C152.3 152.744 151.364 151.808 150.21 151.808C149.055 151.808 148.119 152.744 148.119 153.898C148.119 155.053 149.055 155.989 150.21 155.989Z" fill="#50CD89"/>
<path d="M137.815 140.311C138.969 140.311 139.905 139.375 139.905 138.221C139.905 137.066 138.969 136.13 137.815 136.13C136.661 136.13 135.725 137.066 135.725 138.221C135.725 139.375 136.661 140.311 137.815 140.311Z" fill="#50CD89"/>
<path d="M123.93 158.079C125.085 158.079 126.021 157.143 126.021 155.989C126.021 154.834 125.085 153.898 123.93 153.898C122.776 153.898 121.84 154.834 121.84 155.989C121.84 157.143 122.776 158.079 123.93 158.079Z" fill="#50CD89"/>
<path d="M210.233 162.26H118.555V123.438H210.233V162.26ZM119.749 161.065H209.038V124.633H119.749V161.065Z" fill="white"/>
<path d="M310.868 143.596C310.868 147.418 309.733 150.972 307.792 153.958L291.756 144.342L310.121 138.31C310.48 139.534 310.719 140.848 310.808 142.162C310.838 142.64 310.868 143.118 310.868 143.596Z" fill="white"/>
<path d="M189.029 202.455V235.005C189.029 238.35 191.747 241.097 195.121 241.097H290.771C294.116 241.097 296.863 238.38 296.863 235.005V202.455C296.863 199.11 294.146 196.363 290.771 196.363H195.121C191.747 196.393 189.029 199.11 189.029 202.455Z" fill="#00A3FF"/>
<path d="M290.741 241.694H195.121C191.448 241.694 188.432 238.708 188.432 235.005V202.455C188.432 198.782 191.418 195.766 195.121 195.766H290.771C294.444 195.766 297.46 198.752 297.46 202.455V235.005C297.43 238.708 294.444 241.694 290.741 241.694ZM195.121 196.99C192.105 196.99 189.626 199.439 189.626 202.485V235.035C189.626 238.051 192.075 240.53 195.121 240.53H290.771C293.787 240.53 296.265 238.081 296.265 235.035V202.485C296.265 199.469 293.817 196.99 290.771 196.99H195.121Z" fill="white"/>
<path d="M211.635 230.167C217.54 230.167 222.326 225.381 222.326 219.477C222.326 213.572 217.54 208.786 211.635 208.786C205.731 208.786 200.944 213.572 200.944 219.477C200.944 225.381 205.731 230.167 211.635 230.167Z" fill="#50CD89"/>
<path d="M263.566 212.28H228.776V217.745H263.566V212.28Z" fill="white"/>
<path d="M286.889 220.731H228.776V226.196H286.889V220.731Z" fill="#50CD89"/>
<path d="M148.656 310.856C148.656 310.856 146.685 301.927 151.642 293.237C151.642 293.237 154.36 284.786 149.91 277.111C145.431 269.407 149.91 260.717 155.136 259.492C160.362 258.238 166.544 262.479 168.037 268.421C169.53 274.364 168.276 278.605 177.235 283.054C186.193 287.504 185.805 310.856 185.805 310.856H148.656Z" fill="#00A3FF"/>
<path d="M186.343 311.453H148.178L148.089 310.976C147.999 310.587 146.118 301.748 151.105 292.998C151.314 292.282 153.494 284.458 149.403 277.41C147.163 273.558 146.864 269.048 148.596 265.017C149.94 261.881 152.389 259.522 154.987 258.925C160.571 257.611 167.052 262.061 168.604 268.302C168.903 269.467 169.082 270.571 169.261 271.617C170.008 275.947 170.545 279.082 177.474 282.546C186.641 287.115 186.373 309.93 186.373 310.886L186.343 311.453ZM149.134 310.259H185.148C185.118 306.645 184.641 287.444 176.906 283.592C169.441 279.859 168.784 276.126 168.067 271.796C167.888 270.751 167.709 269.705 167.41 268.571C166.006 262.927 160.183 258.895 155.226 260.06C152.986 260.597 150.866 262.658 149.642 265.465C148.059 269.138 148.328 273.259 150.388 276.783C154.927 284.607 152.299 293.058 152.18 293.386L152.12 293.506C147.969 300.792 148.835 308.318 149.134 310.259Z" fill="white"/>
<path d="M167.469 311.214C160.063 295.059 154.569 259.672 154.509 259.313L155.703 259.134C155.763 259.492 161.228 294.73 168.574 310.737L167.469 311.214Z" fill="white"/>
<path d="M129.007 282.905C131.151 282.905 132.889 281.167 132.889 279.023C132.889 276.878 131.151 275.14 129.007 275.14C126.863 275.14 125.125 276.878 125.125 279.023C125.125 281.167 126.863 282.905 129.007 282.905Z" fill="white"/>
<path d="M148.626 311.304C136.293 306.765 129.365 288.071 129.066 287.294L130.47 286.787C130.53 286.966 137.458 305.63 149.134 309.93L148.626 311.304Z" fill="white"/>
<path d="M164.863 263.316L158.518 280.327L159.637 280.744L165.982 263.733L164.863 263.316Z" fill="white"/>
<path d="M168.124 271.453L160.785 290.003L161.896 290.442L169.235 271.892L168.124 271.453Z" fill="white"/>
<path d="M122.975 280.068C122.975 280.068 129.007 276.932 134.979 278.813C134.979 278.813 136.622 287.593 130.5 288.25C123.572 288.997 122.975 280.068 122.975 280.068Z" fill="#50CD89"/>
<path d="M113.538 279.799C115.485 279.799 117.062 278.221 117.062 276.275C117.062 274.329 115.485 272.751 113.538 272.751C111.592 272.751 110.015 274.329 110.015 276.275C110.015 278.221 111.592 279.799 113.538 279.799Z" fill="white"/>
<path d="M141.458 305.63C141.458 305.63 137.994 300.673 138.472 296.701C138.95 292.73 141.458 291.475 142.444 291.744C143.429 291.983 145.161 292.491 144.415 296.223C143.668 299.926 141.458 305.63 141.458 305.63Z" fill="white"/>
<path d="M150.062 296.951L149.354 297.914L167.765 311.438L168.472 310.476L150.062 296.951Z" fill="white"/>
<path d="M148.786 302.542L148.089 303.512L158.956 311.314L159.653 310.344L148.786 302.542Z" fill="white"/>
<path d="M200.646 272.99C200.646 272.99 198.167 267.764 200.646 261.075C203.125 254.386 204.857 233.512 189.985 234.527C175.084 235.513 174.098 255.371 175.591 265.555C177.084 275.738 174.845 282.666 172.366 288.399C169.887 294.103 161.944 298.314 163.168 310.976H213.547C213.547 310.976 216.025 290.878 200.646 272.99Z" fill="#00A3FF"/>
<path d="M214.085 311.573H162.632L162.572 311.035C161.676 301.897 165.529 296.94 168.634 292.968C169.918 291.326 171.113 289.773 171.83 288.16C174.338 282.367 176.488 275.648 175.025 265.644C173.86 257.581 174.368 245.815 179.773 239.156C182.341 235.991 185.775 234.229 189.986 233.93C194.197 233.661 197.482 235.035 199.721 238.021C204.469 244.382 203.036 256.506 201.274 261.284C199.064 267.287 200.946 272.065 201.214 272.662C209.218 281.979 212.323 291.893 213.518 298.583C214.832 305.839 214.235 310.826 214.205 311.035L214.085 311.573ZM163.707 310.378H213.01C213.249 307.123 213.846 289.265 200.199 273.379L200.139 273.319L200.109 273.259C199.99 273.05 197.541 267.734 200.08 260.896C201.782 256.327 203.155 244.74 198.706 238.768C196.735 236.11 193.808 234.915 190.016 235.154C186.164 235.423 182.998 237.006 180.669 239.932C175.533 246.293 175.025 257.671 176.19 265.495C177.713 275.797 175.383 282.994 172.935 288.638C172.158 290.4 170.934 292.013 169.59 293.715C166.514 297.627 163.05 302.047 163.707 310.378Z" fill="white"/>
<path d="M117.927 289.624C117.927 289.624 110.193 290.251 108.938 288.399C107.684 286.548 111.059 284.906 115.478 287.713C116.105 288.101 117.927 289.624 117.927 289.624Z" fill="white"/>
<path d="M120.346 293.566C120.346 293.566 112.911 295.776 111.298 294.223C109.685 292.67 112.642 290.37 117.539 292.192C118.256 292.431 120.346 293.566 120.346 293.566Z" fill="white"/>
<path d="M136.771 311.453C122.676 300.553 113.597 284.577 113.508 284.428L114.822 283.681C114.911 283.83 123.84 299.568 137.697 310.259L136.771 311.453Z" fill="white"/>
<path d="M189.27 310.946C184.253 283.95 184.522 264.539 185.627 253.012C186.822 240.47 189.211 234.438 189.3 234.169L190.405 234.617C190.375 234.676 187.986 240.798 186.822 253.221C185.717 264.659 185.478 283.92 190.465 310.736L189.27 310.946Z" fill="white"/>
<path d="M177.24 245.632L176.34 246.417L185.464 256.884L186.365 256.099L177.24 245.632Z" fill="white"/>
<path d="M175.815 252.608L174.918 253.396L185.108 264.996L186.005 264.207L175.815 252.608Z" fill="white"/>
<path d="M108.043 277.231C108.043 277.231 113.179 274.245 118.973 276.096C118.973 276.096 120.466 284.069 114.911 284.667C108.58 285.353 108.043 277.231 108.043 277.231Z" fill="#50CD89"/>
<path d="M202.102 275.012L186.86 294.33L187.798 295.07L203.04 275.751L202.102 275.012Z" fill="white"/>
<path d="M205.224 279.517L187.796 301.103L188.725 301.854L206.153 280.267L205.224 279.517Z" fill="white"/>
<path d="M334.138 275.093C335.63 273.844 335.827 271.622 334.578 270.13C333.329 268.637 331.107 268.44 329.615 269.689C328.122 270.938 327.925 273.16 329.174 274.653C330.423 276.145 332.645 276.342 334.138 275.093Z" fill="white"/>
<path d="M337.059 285.413C337.059 285.413 343.389 280.904 343.151 278.694C342.912 276.484 339.268 277.38 337.686 282.337C337.477 283.084 337.059 285.413 337.059 285.413Z" fill="white"/>
<path d="M337.746 289.982C337.746 289.982 344.883 286.906 345.092 284.697C345.301 282.487 341.568 282.606 339 287.145C338.642 287.772 337.746 289.982 337.746 289.982Z" fill="white"/>
<path d="M334.937 311.364L333.504 310.916C339.327 292.879 334.818 279.112 334.788 278.963L336.192 278.485C336.401 279.052 340.91 292.819 334.937 311.364Z" fill="white"/>
<path d="M336.699 269.586C336.699 269.586 330.846 270.572 327.591 275.738C327.591 275.738 331.563 282.815 336.221 279.709C341.477 276.156 336.699 269.586 336.699 269.586Z" fill="#50CD89"/>
<path d="M306.539 310.976C306.539 310.976 305.045 304.286 308.778 297.776C308.778 297.776 310.839 291.445 307.464 285.682C304.12 279.919 307.464 273.408 311.376 272.483C315.288 271.557 319.947 274.722 321.052 279.172C322.157 283.651 321.47 289.922 328.159 293.267C334.848 296.612 334.341 310.976 334.341 310.976H306.539Z" fill="#00A3FF"/>
<path d="M334.938 311.573H306.061L305.972 311.095C305.912 310.826 304.479 304.137 308.241 297.508C308.42 296.88 309.973 291.147 306.987 285.951C305.285 283.024 305.076 279.59 306.39 276.514C307.435 274.125 309.286 272.333 311.287 271.856C315.528 270.84 320.485 274.245 321.679 278.993C321.918 279.948 322.068 280.994 322.247 282.069C322.844 286.07 323.471 290.191 328.488 292.7C335.446 296.194 335.028 310.348 334.998 310.946L334.938 311.573ZM307.047 310.378H333.774C333.774 307.721 333.445 296.582 327.891 293.805C322.336 291.027 321.62 286.369 321.022 282.278C320.873 281.232 320.724 280.217 320.485 279.321C319.44 275.17 315.169 272.184 311.526 273.05C309.884 273.438 308.331 274.961 307.465 277.022C306.3 279.739 306.509 282.785 308.002 285.383C311.437 291.326 309.436 297.687 309.346 297.955L309.286 298.075C306.3 303.331 306.808 308.766 307.047 310.378Z" fill="white"/>
<path d="M320.515 311.304C314.96 299.18 310.839 272.632 310.779 272.363L311.974 272.184C312.004 272.453 316.125 298.851 321.59 310.826L320.515 311.304Z" fill="white"/>
<path d="M318.583 275.271L313.822 288.029L314.941 288.447L319.702 275.689L318.583 275.271Z" fill="white"/>
<path d="M321.003 281.407L315.51 295.291L316.621 295.731L322.114 281.846L321.003 281.407Z" fill="white"/>
<path d="M307.69 300.449L306.982 301.412L320.772 311.542L321.48 310.579L307.69 300.449Z" fill="white"/>
<path d="M306.767 304.643L306.07 305.613L314.221 311.466L314.918 310.495L306.767 304.643Z" fill="white"/>
<path d="M37.4175 296.522H26.876V304.316H37.4175V296.522Z" fill="#00A3FF"/>
<path d="M38.0163 304.913H26.2803V295.925H38.0163V304.913ZM27.4748 303.719H36.8218V297.119H27.4748V303.719Z" fill="white"/>
<path d="M26.8752 302.226C26.8752 302.226 32.6088 306.586 37.4166 302.226L51.691 309.662C52.3181 309.99 52.0792 310.946 51.3923 310.946H26.1585C25.3522 310.946 24.7848 310.199 24.9938 309.423L26.8752 302.226Z" fill="white"/>
<path d="M91.23 296.522H80.6885V304.316H91.23V296.522Z" fill="#00A3FF"/>
<path d="M91.8268 304.913H80.0908V295.925H91.8268V304.913ZM81.2853 303.719H90.6323V297.119H81.2853V303.719Z" fill="white"/>
<path d="M80.6896 302.226C80.6896 302.226 86.4232 306.586 91.2311 302.226L105.505 309.662C106.133 309.99 105.894 310.946 105.207 310.946H79.9729C79.1666 310.946 78.5992 310.199 78.8083 309.423L80.6896 302.226Z" fill="white"/>
<path d="M46.0798 165.037L55.1282 207.621L38.8531 298.672H21.5029C21.5029 298.672 29.954 213.922 30.1929 212.757C30.4617 211.234 29.5957 152.465 29.6554 153.749L46.0798 165.037Z" fill="#00A3FF"/>
<path d="M39.3586 299.269H20.8438L20.9035 298.612C21.2618 295.148 29.3845 213.833 29.5935 212.638C29.8025 211.205 29.265 172.383 29.1157 159.602L29.056 154.137C29.056 154.048 29.056 153.958 29.056 153.868V153.749C29.0858 153.421 29.2053 153.122 29.6234 153.122H30.2206V153.421L46.6152 164.649L46.6749 164.888L55.7531 207.591L39.3586 299.269ZM22.1577 298.075H38.3432L54.4989 207.621L45.5401 165.395L30.2206 154.914C30.2206 155.959 30.2505 157.631 30.2803 159.632C30.6387 185.344 30.9373 211.772 30.7581 212.877C30.579 214.012 25.0842 268.72 22.1577 298.075Z" fill="white"/>
<path d="M61.1277 164.171L79.9112 203.649C80.8668 205.68 81.5537 207.83 81.912 210.04L96.1266 298.672H77.6118L54.7669 210.159L31.2949 155.929L61.1277 164.171Z" fill="#00A3FF"/>
<path d="M96.8445 299.269H77.1651L54.2008 210.339L30.251 155.003L61.547 163.663L80.45 203.381C81.4355 205.471 82.1223 207.681 82.4806 209.95L96.8445 299.269ZM78.0908 298.075H95.441L81.3459 210.13C80.9875 207.979 80.3305 205.859 79.4048 203.888L60.7407 164.679L32.3712 156.825L55.3654 209.95V210.01L78.0908 298.075Z" fill="white"/>
<path d="M101.624 147.388V160.11L117.541 147.388L121.602 139.296L125.365 135.533C125.365 135.533 125.932 135.831 125.365 137.563C124.797 139.296 123.633 140.46 123.633 140.46L122.767 142.491C122.767 142.491 124.797 142.192 125.066 143.357C125.066 143.357 126.798 143.924 126.5 145.387C126.5 145.387 127.366 145.387 127.664 146.552L126.798 149.449L123.603 152.047L121.871 152.345L98.6079 174.742C95.6813 177.579 90.7839 175.608 90.5748 171.547L89.7686 153.809L101.624 147.388Z" fill="#00A3FF"/>
<path d="M95.3515 176.624C94.6945 176.624 94.0077 176.504 93.3507 176.236C91.3798 175.459 90.0957 173.638 90.0061 171.517L89.1699 153.391L102.25 146.373V158.856L117.091 147L121.123 138.937L125.244 134.816L125.632 134.995C125.871 135.115 126.618 135.682 125.931 137.743C125.393 139.325 124.438 140.46 124.139 140.789L123.691 141.864C124.438 141.923 125.214 142.192 125.572 142.879C126.229 143.178 127.125 143.865 127.185 144.91C127.633 145.119 128.081 145.537 128.29 146.373L128.32 146.522L127.364 149.747L123.93 152.555L122.228 152.853L99.0843 175.101C98.0092 176.116 96.6953 176.624 95.3515 176.624ZM90.3943 154.107L91.2006 171.487C91.2902 173.13 92.2756 174.533 93.7986 175.161C95.3216 175.758 97.0238 175.429 98.2183 174.295L121.631 151.778L123.392 151.479L126.319 149.09L127.095 146.552C126.916 146.045 126.618 145.985 126.528 145.985H125.811L125.961 145.268C126.14 144.342 124.915 143.924 124.915 143.924L124.617 143.835L124.527 143.506C124.408 143.028 123.333 143.028 122.885 143.088L121.84 143.237L123.154 140.132L123.243 140.042C123.243 140.042 124.318 138.967 124.826 137.384C124.915 137.145 124.945 136.966 124.975 136.787L122.108 139.654L118.047 147.777L101.025 161.364V148.404L90.3943 154.107Z" fill="white"/>
<path d="M82.3916 117.615L92.4553 103.759L101.265 93.1279L115.121 103.192C115.121 103.192 105.475 125.081 95.9492 118.481L92.4254 124.573L82.3916 117.615Z" fill="#00A3FF"/>
<path d="M92.6337 125.439L81.5547 117.765L92.0066 103.401L101.174 92.3216L115.867 103.012L115.658 103.46C115.389 104.058 109.207 117.944 101.622 120.064C99.7111 120.601 97.8895 120.363 96.1575 119.347L92.6337 125.439ZM83.227 117.466L92.2156 123.707L95.7394 117.615L96.2769 117.974C97.8597 119.078 99.5021 119.377 101.264 118.869C107.595 117.078 113.209 105.73 114.344 103.371L101.354 93.9342L92.9025 104.117L83.227 117.466Z" fill="white"/>
<path d="M92.2149 96.9802C92.2149 96.9802 84.1222 90.5 93.081 83.9004C102.04 77.3008 103.473 88.4694 103.473 88.4694C103.473 88.4694 123.929 94.3822 115 106.686C115 106.686 112.79 106.865 110.789 106.327L108.162 111.583L106.43 111.523C106.43 111.523 107.355 106.536 104.787 107.641C102.219 108.746 101.831 110.866 102.398 112.15C102.398 112.15 96.6943 117.556 89.6766 109.164C89.6468 109.134 86.5112 103.58 92.2149 96.9802Z" fill="white"/>
<path d="M82.5403 114.987H66.3548C66.3548 114.987 39.5979 123.229 36.1339 127.559C34.2525 129.919 37.8659 137.115 40.7028 141.237L28.7578 153.45C40.9119 176.892 64.9214 173.399 64.9214 173.399C67.8181 166.172 88.6323 143.596 88.6323 143.596V159.512L103.952 151.987V133.592C103.952 130.814 102.548 128.216 100.249 126.664L82.5403 114.987Z" fill="#50CD89"/>
<path d="M38.0733 144.76L37.2969 143.835C51.183 132.338 66.831 120.572 66.9803 120.452L67.697 121.408C67.5477 121.527 51.9295 133.293 38.0733 144.76Z" fill="white"/>
<path d="M376.985 293.894H365.607V304.794H376.985V293.894Z" fill="#00A3FF"/>
<path d="M377.582 305.421H365.01V293.327H377.582V305.421ZM366.204 304.227H376.387V294.521H366.204V304.227Z" fill="white"/>
<path d="M383.405 277.918L388.422 286.13L398.038 280.098L393.021 271.886L383.405 277.918Z" fill="#00A3FF"/>
<path d="M388.213 286.966L382.569 277.709L393.23 271.049L398.874 280.307L388.213 286.966ZM384.212 278.097L388.602 285.294L397.232 279.889L392.842 272.692L384.212 278.097Z" fill="white"/>
<path d="M333.564 111.852L325.382 115.346L309.913 91.4259L304.359 87.3347L297.938 84.4082C297.938 84.4082 296.624 87.1854 300.118 88.9175C303.612 90.6495 304.359 91.6947 304.359 91.6947C304.359 91.6947 302.179 91.844 302.03 94.3226C302.03 94.3226 300.865 94.6212 300.716 96.8012C300.716 96.8012 298.954 97.9658 299.85 99.4291C299.85 99.4291 301.164 102.505 303.792 103.371C306.419 104.237 307.883 104.237 307.883 104.237L321.261 127.142C322.515 129.322 325.233 130.188 327.532 129.202L338.94 124.245L333.564 111.852Z" fill="#00A3FF"/>
<path d="M325.562 130.217C323.651 130.217 321.769 129.202 320.754 127.47L307.525 104.864C306.928 104.804 305.584 104.625 303.613 103.968C300.895 103.072 299.492 100.116 299.342 99.7277C298.536 98.354 299.432 97.1297 300.179 96.5026C300.358 94.9198 301.045 94.233 301.493 93.9344C301.672 92.5906 302.448 91.8141 303.195 91.4259C302.597 90.978 301.582 90.321 299.88 89.455C295.908 87.4542 297.401 84.1693 297.431 84.1395L297.67 83.6019L304.718 86.8271L310.362 90.978L325.622 114.569L333.864 111.046L339.747 124.544L327.772 129.74C327.055 130.068 326.308 130.217 325.562 130.217ZM298.357 85.2444C298.238 86.0208 298.387 87.3646 300.447 88.4098C303.971 90.1717 304.807 91.2468 304.897 91.3662L305.524 92.2322L304.449 92.2919C304.27 92.2919 302.777 92.4711 302.657 94.3525L302.627 94.8004L302.209 94.9198C302.209 94.9198 301.463 95.1886 301.343 96.8609L301.313 97.1595L301.074 97.3089C300.955 97.3984 299.82 98.2047 300.388 99.1305L300.417 99.1902C300.417 99.2201 301.672 102.027 304.001 102.804C306.48 103.64 307.883 103.64 307.913 103.64H308.241L308.421 103.938L321.799 126.843C322.904 128.754 325.293 129.531 327.324 128.635L338.194 123.916L333.266 112.599L325.174 116.063L309.496 91.8141L304.091 87.8424L298.357 85.2444Z" fill="white"/>
<path d="M387.259 162.32L380.838 207.263L379.674 298.583H358.65L360.114 207.532L365.071 160.289L387.259 162.32Z" fill="white"/>
<path d="M348.438 158.229L342.226 202.336C341.719 205.919 342.316 209.562 343.899 212.817L378.778 283.383L393.948 271.706L365.071 208.099L380.958 160.11L348.438 158.229Z" fill="#F0EFF5"/>
<path d="M376.986 301.24C376.986 301.24 370.804 305.929 365.608 301.24L350.199 309.273C349.512 309.632 349.781 310.647 350.527 310.647H377.732C378.598 310.647 379.225 309.841 378.986 309.005L376.986 301.24Z" fill="white"/>
<path d="M364.861 108.836L365.906 94.3524C365.906 94.3524 352.378 97.0998 358.381 77.6891C362.979 62.8175 376.388 74.4042 376.388 74.4042C376.388 74.4042 379.553 76.4946 377.702 92.8295L378.09 109.791L364.861 108.836Z" fill="#00A3FF"/>
<path d="M378.718 110.448L364.235 109.403L365.28 95.0692C363.817 95.2185 360.532 95.1886 358.322 92.7399C355.754 89.9029 355.574 84.7666 357.814 77.5398C359.128 73.2695 361.308 70.6714 364.265 69.8353C369.909 68.2227 376.299 73.5681 376.777 73.9563C377.285 74.3445 380.092 77.2113 378.33 92.8593L378.718 110.448ZM365.489 108.298L377.494 109.164L377.105 92.7996V92.7697C378.837 77.51 376.09 74.9418 376.06 74.9119L376 74.8821C375.941 74.8223 369.7 69.5068 364.563 70.9701C362.025 71.7166 360.114 74.016 358.919 77.8683C356.859 84.5874 356.918 89.4251 359.158 91.9037C361.547 94.5615 365.728 93.7552 365.758 93.7552L366.534 93.6059L366.474 94.3823L365.489 108.298Z" fill="white"/>
<path d="M330.07 111.255L336.789 127.888L348.615 123.379L349.332 131.113L346.405 164.081C346.405 164.081 355.065 173.01 364.92 170.024C380.06 165.455 388.691 169.069 388.691 169.069L388.84 146.701C388.84 146.701 399.501 143.924 399.77 142.192C400.038 140.55 397.978 119.347 383.226 105.192C381.613 103.64 379.493 102.684 377.283 102.415L359.276 100.355C357.424 100.146 355.543 100.414 353.841 101.131L330.07 111.255Z" fill="#00A3FF"/>
<path d="M360.739 171.249C352.617 171.249 346.286 164.828 345.957 164.5L345.778 164.291L348.705 131.113L348.048 124.215L336.431 128.664L329.294 110.956L353.632 100.594C355.424 99.8172 357.425 99.5485 359.366 99.7575L377.373 101.818C379.762 102.087 382.001 103.132 383.674 104.745C398.725 119.198 400.666 140.699 400.397 142.282C400.277 142.999 399.471 143.954 394.424 145.656C392.394 146.343 390.333 146.911 389.467 147.149L389.318 169.935L388.482 169.576C388.392 169.546 379.821 166.082 365.099 170.532C363.606 171.039 362.143 171.249 360.739 171.249ZM347.032 163.843C348.346 165.097 356.17 172.055 364.771 169.457C377.462 165.604 385.615 167.456 388.123 168.232L388.273 146.254L388.721 146.134C393.528 144.88 398.904 142.939 399.232 142.073C399.322 141.476 398.993 135.951 396.604 128.545C394.544 122.125 390.512 112.957 382.838 105.611C381.344 104.177 379.344 103.251 377.223 103.013L359.216 100.952C357.484 100.743 355.692 101.012 354.08 101.699L330.817 111.583L337.088 127.112L349.093 122.513L349.899 131.083L347.032 163.843Z" fill="white"/>
<path d="M396.904 277.679C396.904 277.679 394.156 284.936 387.258 283.711L378.449 298.672C378.06 299.329 378.807 300.076 379.464 299.658L402.518 285.234C403.235 284.786 403.354 283.771 402.727 283.174L396.904 277.679Z" fill="#F0EFF5"/>
<path d="M389.438 146.702H388.244C388.244 129.471 383.944 114.928 383.884 114.778L385.019 114.45C385.078 114.599 389.438 129.322 389.438 146.702Z" fill="white"/>
<path d="M365.219 77.8683L365.518 83.1241H367.548C367.548 83.1241 368.982 77.9579 372.506 81.3622C373.133 81.9595 373.67 83.6915 373.103 86.0208C373.103 86.0208 374.327 88.9174 377.582 89.3355C377.582 89.3355 378.866 88.9174 379.225 88.6487C382.659 85.8117 386.571 74.882 381.255 70.5519C381.255 70.5519 371.042 58.3083 359.426 65.3559C356.499 67.1775 355.006 73.4785 365.219 77.8683Z" fill="white"/>
<path d="M422.854 310.677H0V311.872H422.854V310.677Z" fill="black"/>
</svg>
